G04 #@! TF.GenerationSoftware,KiCad,Pcbnew,8.0.7-8.0.7-0~ubuntu24.04.1*
G04 #@! TF.CreationDate,2025-01-03T20:46:54-06:00*
G04 #@! TF.ProjectId,christmas-tree,63687269-7374-46d6-9173-2d747265652e,rev?*
G04 #@! TF.SameCoordinates,Original*
G04 #@! TF.FileFunction,Paste,Top*
G04 #@! TF.FilePolarity,Positive*
%FSLAX46Y46*%
G04 Gerber Fmt 4.6, Leading zero omitted, Abs format (unit mm)*
G04 Created by KiCad (PCBNEW 8.0.7-8.0.7-0~ubuntu24.04.1) date 2025-01-03 20:46:54*
%MOMM*%
%LPD*%
G01*
G04 APERTURE LIST*
G04 Aperture macros list*
%AMRoundRect*
0 Rectangle with rounded corners*
0 $1 Rounding radius*
0 $2 $3 $4 $5 $6 $7 $8 $9 X,Y pos of 4 corners*
0 Add a 4 corners polygon primitive as box body*
4,1,4,$2,$3,$4,$5,$6,$7,$8,$9,$2,$3,0*
0 Add four circle primitives for the rounded corners*
1,1,$1+$1,$2,$3*
1,1,$1+$1,$4,$5*
1,1,$1+$1,$6,$7*
1,1,$1+$1,$8,$9*
0 Add four rect primitives between the rounded corners*
20,1,$1+$1,$2,$3,$4,$5,0*
20,1,$1+$1,$4,$5,$6,$7,0*
20,1,$1+$1,$6,$7,$8,$9,0*
20,1,$1+$1,$8,$9,$2,$3,0*%
G04 Aperture macros list end*
%ADD10R,1.300000X3.400000*%
%ADD11RoundRect,0.250000X0.450000X-0.350000X0.450000X0.350000X-0.450000X0.350000X-0.450000X-0.350000X0*%
%ADD12RoundRect,0.150000X-0.825000X-0.150000X0.825000X-0.150000X0.825000X0.150000X-0.825000X0.150000X0*%
%ADD13R,1.300000X0.600000*%
%ADD14RoundRect,0.250000X0.350000X0.450000X-0.350000X0.450000X-0.350000X-0.450000X0.350000X-0.450000X0*%
%ADD15RoundRect,0.250000X-0.337500X-0.475000X0.337500X-0.475000X0.337500X0.475000X-0.337500X0.475000X0*%
%ADD16RoundRect,0.250000X-0.450000X0.350000X-0.450000X-0.350000X0.450000X-0.350000X0.450000X0.350000X0*%
%ADD17RoundRect,0.250000X-0.350000X-0.450000X0.350000X-0.450000X0.350000X0.450000X-0.350000X0.450000X0*%
%ADD18R,0.700000X2.000000*%
%ADD19R,0.800000X2.000000*%
%ADD20R,0.900000X2.000000*%
G04 APERTURE END LIST*
D10*
G04 #@! TO.C,BZ1*
X155121600Y-71537600D03*
X163821600Y-71537600D03*
G04 #@! TD*
D11*
G04 #@! TO.C,R2*
X152971600Y-129787600D03*
X152971600Y-127787600D03*
G04 #@! TD*
G04 #@! TO.C,R19*
X168410376Y-78572056D03*
X168410376Y-76572056D03*
G04 #@! TD*
D12*
G04 #@! TO.C,U2*
X158021600Y-115037600D03*
X158021600Y-116307600D03*
X158021600Y-117577600D03*
X158021600Y-118847600D03*
X158021600Y-120117600D03*
X158021600Y-121387600D03*
X158021600Y-122657600D03*
X158021600Y-123927600D03*
X162971600Y-123927600D03*
X162971600Y-122657600D03*
X162971600Y-121387600D03*
X162971600Y-120117600D03*
X162971600Y-118847600D03*
X162971600Y-117577600D03*
X162971600Y-116307600D03*
X162971600Y-115037600D03*
G04 #@! TD*
D13*
G04 #@! TO.C,Q1*
X168421600Y-74574300D03*
X168421600Y-72674300D03*
X166321600Y-73624300D03*
G04 #@! TD*
D14*
G04 #@! TO.C,R5*
X154721600Y-115537600D03*
X152721600Y-115537600D03*
G04 #@! TD*
D12*
G04 #@! TO.C,U4*
X158021600Y-83287600D03*
X158021600Y-84557600D03*
X158021600Y-85827600D03*
X158021600Y-87097600D03*
X158021600Y-88367600D03*
X158021600Y-89637600D03*
X158021600Y-90907600D03*
X158021600Y-92177600D03*
X162971600Y-92177600D03*
X162971600Y-90907600D03*
X162971600Y-89637600D03*
X162971600Y-88367600D03*
X162971600Y-87097600D03*
X162971600Y-85827600D03*
X162971600Y-84557600D03*
X162971600Y-83287600D03*
G04 #@! TD*
D14*
G04 #@! TO.C,R27*
X154721600Y-91287600D03*
X152721600Y-91287600D03*
G04 #@! TD*
D12*
G04 #@! TO.C,U1*
X137771600Y-125632600D03*
X137771600Y-126902600D03*
X137771600Y-128172600D03*
X137771600Y-129442600D03*
X142721600Y-129442600D03*
X142721600Y-128172600D03*
X142721600Y-126902600D03*
X142721600Y-125632600D03*
G04 #@! TD*
D15*
G04 #@! TO.C,C4*
X139184100Y-121287600D03*
X141259100Y-121287600D03*
G04 #@! TD*
D16*
G04 #@! TO.C,R21*
X169594696Y-86459196D03*
X169594696Y-88459196D03*
G04 #@! TD*
D15*
G04 #@! TO.C,C1*
X139184100Y-123442600D03*
X141259100Y-123442600D03*
G04 #@! TD*
D14*
G04 #@! TO.C,R22*
X154721600Y-81287600D03*
X152721600Y-81287600D03*
G04 #@! TD*
D17*
G04 #@! TO.C,R29*
X159471600Y-57537600D03*
X161471600Y-57537600D03*
G04 #@! TD*
D15*
G04 #@! TO.C,C3*
X165434100Y-98612600D03*
X167509100Y-98612600D03*
G04 #@! TD*
D16*
G04 #@! TO.C,R3*
X170694768Y-122134800D03*
X170694768Y-124134800D03*
G04 #@! TD*
D14*
G04 #@! TO.C,R4*
X154721600Y-113537600D03*
X152721600Y-113537600D03*
G04 #@! TD*
G04 #@! TO.C,R9*
X154721600Y-123537600D03*
X152721600Y-123537600D03*
G04 #@! TD*
G04 #@! TO.C,R18*
X154721600Y-109287600D03*
X152721600Y-109287600D03*
G04 #@! TD*
G04 #@! TO.C,R14*
X154721600Y-101287600D03*
X152721600Y-101287600D03*
G04 #@! TD*
G04 #@! TO.C,R12*
X154721600Y-97287600D03*
X152721600Y-97287600D03*
G04 #@! TD*
D11*
G04 #@! TO.C,R20*
X165993455Y-69555307D03*
X165993455Y-67555307D03*
G04 #@! TD*
D17*
G04 #@! TO.C,R11*
X168395565Y-101714535D03*
X170395565Y-101714535D03*
G04 #@! TD*
D14*
G04 #@! TO.C,R23*
X154721600Y-83287600D03*
X152721600Y-83287600D03*
G04 #@! TD*
D18*
G04 #@! TO.C,J1*
X154451600Y-133037600D03*
D19*
X152431600Y-133037600D03*
D20*
X151201600Y-133037600D03*
D18*
X153451600Y-133037600D03*
D19*
X155471600Y-133037600D03*
D20*
X156701600Y-133037600D03*
G04 #@! TD*
D14*
G04 #@! TO.C,R8*
X154721600Y-121537600D03*
X152721600Y-121537600D03*
G04 #@! TD*
G04 #@! TO.C,R6*
X154721600Y-117537600D03*
X152721600Y-117537600D03*
G04 #@! TD*
G04 #@! TO.C,R26*
X154721600Y-89287600D03*
X152721600Y-89287600D03*
G04 #@! TD*
D15*
G04 #@! TO.C,C5*
X165434100Y-83287600D03*
X167509100Y-83287600D03*
G04 #@! TD*
D14*
G04 #@! TO.C,R24*
X154721600Y-85287600D03*
X152721600Y-85287600D03*
G04 #@! TD*
G04 #@! TO.C,R15*
X154721600Y-103287600D03*
X152721600Y-103287600D03*
G04 #@! TD*
G04 #@! TO.C,R28*
X154721600Y-93287600D03*
X152721600Y-93287600D03*
G04 #@! TD*
D12*
G04 #@! TO.C,U3*
X158021600Y-98667600D03*
X158021600Y-99937600D03*
X158021600Y-101207600D03*
X158021600Y-102477600D03*
X158021600Y-103747600D03*
X158021600Y-105017600D03*
X158021600Y-106287600D03*
X158021600Y-107557600D03*
X162971600Y-107557600D03*
X162971600Y-106287600D03*
X162971600Y-105017600D03*
X162971600Y-103747600D03*
X162971600Y-102477600D03*
X162971600Y-101207600D03*
X162971600Y-99937600D03*
X162971600Y-98667600D03*
G04 #@! TD*
D15*
G04 #@! TO.C,C2*
X165434100Y-115037600D03*
X167509100Y-115037600D03*
G04 #@! TD*
D14*
G04 #@! TO.C,R25*
X154721600Y-87287600D03*
X152721600Y-87287600D03*
G04 #@! TD*
D11*
G04 #@! TO.C,R1*
X154971600Y-129787600D03*
X154971600Y-127787600D03*
G04 #@! TD*
D14*
G04 #@! TO.C,R13*
X154721600Y-99287600D03*
X152721600Y-99287600D03*
G04 #@! TD*
G04 #@! TO.C,R16*
X154721600Y-105287600D03*
X152721600Y-105287600D03*
G04 #@! TD*
G04 #@! TO.C,R17*
X154721600Y-107287600D03*
X152721600Y-107287600D03*
G04 #@! TD*
G04 #@! TO.C,R10*
X154721600Y-125537600D03*
X152721600Y-125537600D03*
G04 #@! TD*
G04 #@! TO.C,R7*
X154721600Y-119537600D03*
X152721600Y-119537600D03*
G04 #@! TD*
M02*
