G04 #@! TF.GenerationSoftware,KiCad,Pcbnew,8.0.7-8.0.7-0~ubuntu24.04.1*
G04 #@! TF.CreationDate,2025-01-03T20:46:54-06:00*
G04 #@! TF.ProjectId,christmas-tree,63687269-7374-46d6-9173-2d747265652e,rev?*
G04 #@! TF.SameCoordinates,Original*
G04 #@! TF.FileFunction,Legend,Top*
G04 #@! TF.FilePolarity,Positive*
%FSLAX46Y46*%
G04 Gerber Fmt 4.6, Leading zero omitted, Abs format (unit mm)*
G04 Created by KiCad (PCBNEW 8.0.7-8.0.7-0~ubuntu24.04.1) date 2025-01-03 20:46:54*
%MOMM*%
%LPD*%
G01*
G04 APERTURE LIST*
G04 Aperture macros list*
%AMRoundRect*
0 Rectangle with rounded corners*
0 $1 Rounding radius*
0 $2 $3 $4 $5 $6 $7 $8 $9 X,Y pos of 4 corners*
0 Add a 4 corners polygon primitive as box body*
4,1,4,$2,$3,$4,$5,$6,$7,$8,$9,$2,$3,0*
0 Add four circle primitives for the rounded corners*
1,1,$1+$1,$2,$3*
1,1,$1+$1,$4,$5*
1,1,$1+$1,$6,$7*
1,1,$1+$1,$8,$9*
0 Add four rect primitives between the rounded corners*
20,1,$1+$1,$2,$3,$4,$5,0*
20,1,$1+$1,$4,$5,$6,$7,0*
20,1,$1+$1,$6,$7,$8,$9,0*
20,1,$1+$1,$8,$9,$2,$3,0*%
G04 Aperture macros list end*
%ADD10C,0.250000*%
%ADD11C,0.150000*%
%ADD12C,0.100000*%
%ADD13C,0.120000*%
%ADD14C,0.200000*%
%ADD15R,1.300000X3.400000*%
%ADD16RoundRect,0.250000X0.450000X-0.350000X0.450000X0.350000X-0.450000X0.350000X-0.450000X-0.350000X0*%
%ADD17RoundRect,0.150000X-0.825000X-0.150000X0.825000X-0.150000X0.825000X0.150000X-0.825000X0.150000X0*%
%ADD18RoundRect,0.070000X0.650000X0.300000X-0.650000X0.300000X-0.650000X-0.300000X0.650000X-0.300000X0*%
%ADD19RoundRect,0.250000X0.350000X0.450000X-0.350000X0.450000X-0.350000X-0.450000X0.350000X-0.450000X0*%
%ADD20R,1.700000X1.700000*%
%ADD21O,1.700000X1.700000*%
%ADD22C,1.000000*%
%ADD23RoundRect,0.250000X-0.337500X-0.475000X0.337500X-0.475000X0.337500X0.475000X-0.337500X0.475000X0*%
%ADD24RoundRect,0.250000X-0.450000X0.350000X-0.450000X-0.350000X0.450000X-0.350000X0.450000X0.350000X0*%
%ADD25RoundRect,0.250000X-0.350000X-0.450000X0.350000X-0.450000X0.350000X0.450000X-0.350000X0.450000X0*%
%ADD26RoundRect,0.102000X0.350000X1.000000X-0.350000X1.000000X-0.350000X-1.000000X0.350000X-1.000000X0*%
%ADD27RoundRect,0.102000X0.400000X1.000000X-0.400000X1.000000X-0.400000X-1.000000X0.400000X-1.000000X0*%
%ADD28RoundRect,0.102000X0.450000X1.000000X-0.450000X1.000000X-0.450000X-1.000000X0.450000X-1.000000X0*%
%ADD29O,1.204000X2.204000*%
G04 APERTURE END LIST*
D10*
X127553789Y-129004254D02*
X127077599Y-129004254D01*
X127077599Y-129004254D02*
X127029980Y-129480444D01*
X127029980Y-129480444D02*
X127077599Y-129432825D01*
X127077599Y-129432825D02*
X127172837Y-129385206D01*
X127172837Y-129385206D02*
X127410932Y-129385206D01*
X127410932Y-129385206D02*
X127506170Y-129432825D01*
X127506170Y-129432825D02*
X127553789Y-129480444D01*
X127553789Y-129480444D02*
X127601408Y-129575682D01*
X127601408Y-129575682D02*
X127601408Y-129813777D01*
X127601408Y-129813777D02*
X127553789Y-129909015D01*
X127553789Y-129909015D02*
X127506170Y-129956635D01*
X127506170Y-129956635D02*
X127410932Y-130004254D01*
X127410932Y-130004254D02*
X127172837Y-130004254D01*
X127172837Y-130004254D02*
X127077599Y-129956635D01*
X127077599Y-129956635D02*
X127029980Y-129909015D01*
X127887123Y-129004254D02*
X128220456Y-130004254D01*
X128220456Y-130004254D02*
X128553789Y-129004254D01*
X125510915Y-126519168D02*
X125510915Y-127328691D01*
X125510915Y-127328691D02*
X125558534Y-127423929D01*
X125558534Y-127423929D02*
X125606153Y-127471549D01*
X125606153Y-127471549D02*
X125701391Y-127519168D01*
X125701391Y-127519168D02*
X125891867Y-127519168D01*
X125891867Y-127519168D02*
X125987105Y-127471549D01*
X125987105Y-127471549D02*
X126034724Y-127423929D01*
X126034724Y-127423929D02*
X126082343Y-127328691D01*
X126082343Y-127328691D02*
X126082343Y-126519168D01*
X126558534Y-127519168D02*
X126558534Y-126519168D01*
X126558534Y-126519168D02*
X126939486Y-126519168D01*
X126939486Y-126519168D02*
X127034724Y-126566787D01*
X127034724Y-126566787D02*
X127082343Y-126614406D01*
X127082343Y-126614406D02*
X127129962Y-126709644D01*
X127129962Y-126709644D02*
X127129962Y-126852501D01*
X127129962Y-126852501D02*
X127082343Y-126947739D01*
X127082343Y-126947739D02*
X127034724Y-126995358D01*
X127034724Y-126995358D02*
X126939486Y-127042977D01*
X126939486Y-127042977D02*
X126558534Y-127042977D01*
X127558534Y-127519168D02*
X127558534Y-126519168D01*
X127558534Y-126519168D02*
X127796629Y-126519168D01*
X127796629Y-126519168D02*
X127939486Y-126566787D01*
X127939486Y-126566787D02*
X128034724Y-126662025D01*
X128034724Y-126662025D02*
X128082343Y-126757263D01*
X128082343Y-126757263D02*
X128129962Y-126947739D01*
X128129962Y-126947739D02*
X128129962Y-127090596D01*
X128129962Y-127090596D02*
X128082343Y-127281072D01*
X128082343Y-127281072D02*
X128034724Y-127376310D01*
X128034724Y-127376310D02*
X127939486Y-127471549D01*
X127939486Y-127471549D02*
X127796629Y-127519168D01*
X127796629Y-127519168D02*
X127558534Y-127519168D01*
X128558534Y-127519168D02*
X128558534Y-126519168D01*
X126547948Y-123865607D02*
X126452710Y-123817988D01*
X126452710Y-123817988D02*
X126309853Y-123817988D01*
X126309853Y-123817988D02*
X126166996Y-123865607D01*
X126166996Y-123865607D02*
X126071758Y-123960845D01*
X126071758Y-123960845D02*
X126024139Y-124056083D01*
X126024139Y-124056083D02*
X125976520Y-124246559D01*
X125976520Y-124246559D02*
X125976520Y-124389416D01*
X125976520Y-124389416D02*
X126024139Y-124579892D01*
X126024139Y-124579892D02*
X126071758Y-124675130D01*
X126071758Y-124675130D02*
X126166996Y-124770369D01*
X126166996Y-124770369D02*
X126309853Y-124817988D01*
X126309853Y-124817988D02*
X126405091Y-124817988D01*
X126405091Y-124817988D02*
X126547948Y-124770369D01*
X126547948Y-124770369D02*
X126595567Y-124722749D01*
X126595567Y-124722749D02*
X126595567Y-124389416D01*
X126595567Y-124389416D02*
X126405091Y-124389416D01*
X127024139Y-124817988D02*
X127024139Y-123817988D01*
X127024139Y-123817988D02*
X127595567Y-124817988D01*
X127595567Y-124817988D02*
X127595567Y-123817988D01*
X128071758Y-124817988D02*
X128071758Y-123817988D01*
X128071758Y-123817988D02*
X128309853Y-123817988D01*
X128309853Y-123817988D02*
X128452710Y-123865607D01*
X128452710Y-123865607D02*
X128547948Y-123960845D01*
X128547948Y-123960845D02*
X128595567Y-124056083D01*
X128595567Y-124056083D02*
X128643186Y-124246559D01*
X128643186Y-124246559D02*
X128643186Y-124389416D01*
X128643186Y-124389416D02*
X128595567Y-124579892D01*
X128595567Y-124579892D02*
X128547948Y-124675130D01*
X128547948Y-124675130D02*
X128452710Y-124770369D01*
X128452710Y-124770369D02*
X128309853Y-124817988D01*
X128309853Y-124817988D02*
X128071758Y-124817988D01*
X173802728Y-129634686D02*
X173707490Y-129682305D01*
X173707490Y-129682305D02*
X173517014Y-129682305D01*
X173517014Y-129682305D02*
X173421776Y-129634686D01*
X173421776Y-129634686D02*
X173374157Y-129587066D01*
X173374157Y-129587066D02*
X173326538Y-129491828D01*
X173326538Y-129491828D02*
X173326538Y-129206114D01*
X173326538Y-129206114D02*
X173374157Y-129110876D01*
X173374157Y-129110876D02*
X173421776Y-129063257D01*
X173421776Y-129063257D02*
X173517014Y-129015638D01*
X173517014Y-129015638D02*
X173707490Y-129015638D01*
X173707490Y-129015638D02*
X173802728Y-129063257D01*
X174231300Y-129682305D02*
X174231300Y-128682305D01*
X174659871Y-129682305D02*
X174659871Y-129158495D01*
X174659871Y-129158495D02*
X174612252Y-129063257D01*
X174612252Y-129063257D02*
X174517014Y-129015638D01*
X174517014Y-129015638D02*
X174374157Y-129015638D01*
X174374157Y-129015638D02*
X174278919Y-129063257D01*
X174278919Y-129063257D02*
X174231300Y-129110876D01*
X175136062Y-129682305D02*
X175136062Y-129015638D01*
X175136062Y-129206114D02*
X175183681Y-129110876D01*
X175183681Y-129110876D02*
X175231300Y-129063257D01*
X175231300Y-129063257D02*
X175326538Y-129015638D01*
X175326538Y-129015638D02*
X175421776Y-129015638D01*
X175755110Y-129682305D02*
X175755110Y-129015638D01*
X175755110Y-128682305D02*
X175707491Y-128729924D01*
X175707491Y-128729924D02*
X175755110Y-128777543D01*
X175755110Y-128777543D02*
X175802729Y-128729924D01*
X175802729Y-128729924D02*
X175755110Y-128682305D01*
X175755110Y-128682305D02*
X175755110Y-128777543D01*
X176183681Y-129634686D02*
X176278919Y-129682305D01*
X176278919Y-129682305D02*
X176469395Y-129682305D01*
X176469395Y-129682305D02*
X176564633Y-129634686D01*
X176564633Y-129634686D02*
X176612252Y-129539447D01*
X176612252Y-129539447D02*
X176612252Y-129491828D01*
X176612252Y-129491828D02*
X176564633Y-129396590D01*
X176564633Y-129396590D02*
X176469395Y-129348971D01*
X176469395Y-129348971D02*
X176326538Y-129348971D01*
X176326538Y-129348971D02*
X176231300Y-129301352D01*
X176231300Y-129301352D02*
X176183681Y-129206114D01*
X176183681Y-129206114D02*
X176183681Y-129158495D01*
X176183681Y-129158495D02*
X176231300Y-129063257D01*
X176231300Y-129063257D02*
X176326538Y-129015638D01*
X176326538Y-129015638D02*
X176469395Y-129015638D01*
X176469395Y-129015638D02*
X176564633Y-129063257D01*
X176897967Y-129015638D02*
X177278919Y-129015638D01*
X177040824Y-128682305D02*
X177040824Y-129539447D01*
X177040824Y-129539447D02*
X177088443Y-129634686D01*
X177088443Y-129634686D02*
X177183681Y-129682305D01*
X177183681Y-129682305D02*
X177278919Y-129682305D01*
X177612253Y-129682305D02*
X177612253Y-129015638D01*
X177612253Y-129110876D02*
X177659872Y-129063257D01*
X177659872Y-129063257D02*
X177755110Y-129015638D01*
X177755110Y-129015638D02*
X177897967Y-129015638D01*
X177897967Y-129015638D02*
X177993205Y-129063257D01*
X177993205Y-129063257D02*
X178040824Y-129158495D01*
X178040824Y-129158495D02*
X178040824Y-129682305D01*
X178040824Y-129158495D02*
X178088443Y-129063257D01*
X178088443Y-129063257D02*
X178183681Y-129015638D01*
X178183681Y-129015638D02*
X178326538Y-129015638D01*
X178326538Y-129015638D02*
X178421777Y-129063257D01*
X178421777Y-129063257D02*
X178469396Y-129158495D01*
X178469396Y-129158495D02*
X178469396Y-129682305D01*
X179374157Y-129682305D02*
X179374157Y-129158495D01*
X179374157Y-129158495D02*
X179326538Y-129063257D01*
X179326538Y-129063257D02*
X179231300Y-129015638D01*
X179231300Y-129015638D02*
X179040824Y-129015638D01*
X179040824Y-129015638D02*
X178945586Y-129063257D01*
X179374157Y-129634686D02*
X179278919Y-129682305D01*
X179278919Y-129682305D02*
X179040824Y-129682305D01*
X179040824Y-129682305D02*
X178945586Y-129634686D01*
X178945586Y-129634686D02*
X178897967Y-129539447D01*
X178897967Y-129539447D02*
X178897967Y-129444209D01*
X178897967Y-129444209D02*
X178945586Y-129348971D01*
X178945586Y-129348971D02*
X179040824Y-129301352D01*
X179040824Y-129301352D02*
X179278919Y-129301352D01*
X179278919Y-129301352D02*
X179374157Y-129253733D01*
X179802729Y-129634686D02*
X179897967Y-129682305D01*
X179897967Y-129682305D02*
X180088443Y-129682305D01*
X180088443Y-129682305D02*
X180183681Y-129634686D01*
X180183681Y-129634686D02*
X180231300Y-129539447D01*
X180231300Y-129539447D02*
X180231300Y-129491828D01*
X180231300Y-129491828D02*
X180183681Y-129396590D01*
X180183681Y-129396590D02*
X180088443Y-129348971D01*
X180088443Y-129348971D02*
X179945586Y-129348971D01*
X179945586Y-129348971D02*
X179850348Y-129301352D01*
X179850348Y-129301352D02*
X179802729Y-129206114D01*
X179802729Y-129206114D02*
X179802729Y-129158495D01*
X179802729Y-129158495D02*
X179850348Y-129063257D01*
X179850348Y-129063257D02*
X179945586Y-129015638D01*
X179945586Y-129015638D02*
X180088443Y-129015638D01*
X180088443Y-129015638D02*
X180183681Y-129063257D01*
X181278920Y-129015638D02*
X181659872Y-129015638D01*
X181421777Y-128682305D02*
X181421777Y-129539447D01*
X181421777Y-129539447D02*
X181469396Y-129634686D01*
X181469396Y-129634686D02*
X181564634Y-129682305D01*
X181564634Y-129682305D02*
X181659872Y-129682305D01*
X181993206Y-129682305D02*
X181993206Y-129015638D01*
X181993206Y-129206114D02*
X182040825Y-129110876D01*
X182040825Y-129110876D02*
X182088444Y-129063257D01*
X182088444Y-129063257D02*
X182183682Y-129015638D01*
X182183682Y-129015638D02*
X182278920Y-129015638D01*
X182993206Y-129634686D02*
X182897968Y-129682305D01*
X182897968Y-129682305D02*
X182707492Y-129682305D01*
X182707492Y-129682305D02*
X182612254Y-129634686D01*
X182612254Y-129634686D02*
X182564635Y-129539447D01*
X182564635Y-129539447D02*
X182564635Y-129158495D01*
X182564635Y-129158495D02*
X182612254Y-129063257D01*
X182612254Y-129063257D02*
X182707492Y-129015638D01*
X182707492Y-129015638D02*
X182897968Y-129015638D01*
X182897968Y-129015638D02*
X182993206Y-129063257D01*
X182993206Y-129063257D02*
X183040825Y-129158495D01*
X183040825Y-129158495D02*
X183040825Y-129253733D01*
X183040825Y-129253733D02*
X182564635Y-129348971D01*
X183850349Y-129634686D02*
X183755111Y-129682305D01*
X183755111Y-129682305D02*
X183564635Y-129682305D01*
X183564635Y-129682305D02*
X183469397Y-129634686D01*
X183469397Y-129634686D02*
X183421778Y-129539447D01*
X183421778Y-129539447D02*
X183421778Y-129158495D01*
X183421778Y-129158495D02*
X183469397Y-129063257D01*
X183469397Y-129063257D02*
X183564635Y-129015638D01*
X183564635Y-129015638D02*
X183755111Y-129015638D01*
X183755111Y-129015638D02*
X183850349Y-129063257D01*
X183850349Y-129063257D02*
X183897968Y-129158495D01*
X183897968Y-129158495D02*
X183897968Y-129253733D01*
X183897968Y-129253733D02*
X183421778Y-129348971D01*
X184993207Y-129015638D02*
X185231302Y-129682305D01*
X185231302Y-129682305D02*
X185469397Y-129015638D01*
X185802731Y-128777543D02*
X185850350Y-128729924D01*
X185850350Y-128729924D02*
X185945588Y-128682305D01*
X185945588Y-128682305D02*
X186183683Y-128682305D01*
X186183683Y-128682305D02*
X186278921Y-128729924D01*
X186278921Y-128729924D02*
X186326540Y-128777543D01*
X186326540Y-128777543D02*
X186374159Y-128872781D01*
X186374159Y-128872781D02*
X186374159Y-128968019D01*
X186374159Y-128968019D02*
X186326540Y-129110876D01*
X186326540Y-129110876D02*
X185755112Y-129682305D01*
X185755112Y-129682305D02*
X186374159Y-129682305D01*
X173374157Y-131292249D02*
X173374157Y-130625582D01*
X173374157Y-130720820D02*
X173421776Y-130673201D01*
X173421776Y-130673201D02*
X173517014Y-130625582D01*
X173517014Y-130625582D02*
X173659871Y-130625582D01*
X173659871Y-130625582D02*
X173755109Y-130673201D01*
X173755109Y-130673201D02*
X173802728Y-130768439D01*
X173802728Y-130768439D02*
X173802728Y-131292249D01*
X173802728Y-130768439D02*
X173850347Y-130673201D01*
X173850347Y-130673201D02*
X173945585Y-130625582D01*
X173945585Y-130625582D02*
X174088442Y-130625582D01*
X174088442Y-130625582D02*
X174183681Y-130673201D01*
X174183681Y-130673201D02*
X174231300Y-130768439D01*
X174231300Y-130768439D02*
X174231300Y-131292249D01*
X175136061Y-131292249D02*
X175136061Y-130768439D01*
X175136061Y-130768439D02*
X175088442Y-130673201D01*
X175088442Y-130673201D02*
X174993204Y-130625582D01*
X174993204Y-130625582D02*
X174802728Y-130625582D01*
X174802728Y-130625582D02*
X174707490Y-130673201D01*
X175136061Y-131244630D02*
X175040823Y-131292249D01*
X175040823Y-131292249D02*
X174802728Y-131292249D01*
X174802728Y-131292249D02*
X174707490Y-131244630D01*
X174707490Y-131244630D02*
X174659871Y-131149391D01*
X174659871Y-131149391D02*
X174659871Y-131054153D01*
X174659871Y-131054153D02*
X174707490Y-130958915D01*
X174707490Y-130958915D02*
X174802728Y-130911296D01*
X174802728Y-130911296D02*
X175040823Y-130911296D01*
X175040823Y-130911296D02*
X175136061Y-130863677D01*
X176040823Y-131292249D02*
X176040823Y-130292249D01*
X176040823Y-131244630D02*
X175945585Y-131292249D01*
X175945585Y-131292249D02*
X175755109Y-131292249D01*
X175755109Y-131292249D02*
X175659871Y-131244630D01*
X175659871Y-131244630D02*
X175612252Y-131197010D01*
X175612252Y-131197010D02*
X175564633Y-131101772D01*
X175564633Y-131101772D02*
X175564633Y-130816058D01*
X175564633Y-130816058D02*
X175612252Y-130720820D01*
X175612252Y-130720820D02*
X175659871Y-130673201D01*
X175659871Y-130673201D02*
X175755109Y-130625582D01*
X175755109Y-130625582D02*
X175945585Y-130625582D01*
X175945585Y-130625582D02*
X176040823Y-130673201D01*
X176897966Y-131244630D02*
X176802728Y-131292249D01*
X176802728Y-131292249D02*
X176612252Y-131292249D01*
X176612252Y-131292249D02*
X176517014Y-131244630D01*
X176517014Y-131244630D02*
X176469395Y-131149391D01*
X176469395Y-131149391D02*
X176469395Y-130768439D01*
X176469395Y-130768439D02*
X176517014Y-130673201D01*
X176517014Y-130673201D02*
X176612252Y-130625582D01*
X176612252Y-130625582D02*
X176802728Y-130625582D01*
X176802728Y-130625582D02*
X176897966Y-130673201D01*
X176897966Y-130673201D02*
X176945585Y-130768439D01*
X176945585Y-130768439D02*
X176945585Y-130863677D01*
X176945585Y-130863677D02*
X176469395Y-130958915D01*
X178136062Y-131292249D02*
X178136062Y-130292249D01*
X178136062Y-130673201D02*
X178231300Y-130625582D01*
X178231300Y-130625582D02*
X178421776Y-130625582D01*
X178421776Y-130625582D02*
X178517014Y-130673201D01*
X178517014Y-130673201D02*
X178564633Y-130720820D01*
X178564633Y-130720820D02*
X178612252Y-130816058D01*
X178612252Y-130816058D02*
X178612252Y-131101772D01*
X178612252Y-131101772D02*
X178564633Y-131197010D01*
X178564633Y-131197010D02*
X178517014Y-131244630D01*
X178517014Y-131244630D02*
X178421776Y-131292249D01*
X178421776Y-131292249D02*
X178231300Y-131292249D01*
X178231300Y-131292249D02*
X178136062Y-131244630D01*
X178945586Y-130625582D02*
X179183681Y-131292249D01*
X179421776Y-130625582D02*
X179183681Y-131292249D01*
X179183681Y-131292249D02*
X179088443Y-131530344D01*
X179088443Y-131530344D02*
X179040824Y-131577963D01*
X179040824Y-131577963D02*
X178945586Y-131625582D01*
X180421777Y-130625582D02*
X180802729Y-130625582D01*
X180564634Y-130292249D02*
X180564634Y-131149391D01*
X180564634Y-131149391D02*
X180612253Y-131244630D01*
X180612253Y-131244630D02*
X180707491Y-131292249D01*
X180707491Y-131292249D02*
X180802729Y-131292249D01*
X181278920Y-131292249D02*
X181183682Y-131244630D01*
X181183682Y-131244630D02*
X181136063Y-131197010D01*
X181136063Y-131197010D02*
X181088444Y-131101772D01*
X181088444Y-131101772D02*
X181088444Y-130816058D01*
X181088444Y-130816058D02*
X181136063Y-130720820D01*
X181136063Y-130720820D02*
X181183682Y-130673201D01*
X181183682Y-130673201D02*
X181278920Y-130625582D01*
X181278920Y-130625582D02*
X181421777Y-130625582D01*
X181421777Y-130625582D02*
X181517015Y-130673201D01*
X181517015Y-130673201D02*
X181564634Y-130720820D01*
X181564634Y-130720820D02*
X181612253Y-130816058D01*
X181612253Y-130816058D02*
X181612253Y-131101772D01*
X181612253Y-131101772D02*
X181564634Y-131197010D01*
X181564634Y-131197010D02*
X181517015Y-131244630D01*
X181517015Y-131244630D02*
X181421777Y-131292249D01*
X181421777Y-131292249D02*
X181278920Y-131292249D01*
X182040825Y-131292249D02*
X182040825Y-130625582D01*
X182040825Y-130720820D02*
X182088444Y-130673201D01*
X182088444Y-130673201D02*
X182183682Y-130625582D01*
X182183682Y-130625582D02*
X182326539Y-130625582D01*
X182326539Y-130625582D02*
X182421777Y-130673201D01*
X182421777Y-130673201D02*
X182469396Y-130768439D01*
X182469396Y-130768439D02*
X182469396Y-131292249D01*
X182469396Y-130768439D02*
X182517015Y-130673201D01*
X182517015Y-130673201D02*
X182612253Y-130625582D01*
X182612253Y-130625582D02*
X182755110Y-130625582D01*
X182755110Y-130625582D02*
X182850349Y-130673201D01*
X182850349Y-130673201D02*
X182897968Y-130768439D01*
X182897968Y-130768439D02*
X182897968Y-131292249D01*
X173802728Y-132902193D02*
X173802728Y-131902193D01*
X173802728Y-132854574D02*
X173707490Y-132902193D01*
X173707490Y-132902193D02*
X173517014Y-132902193D01*
X173517014Y-132902193D02*
X173421776Y-132854574D01*
X173421776Y-132854574D02*
X173374157Y-132806954D01*
X173374157Y-132806954D02*
X173326538Y-132711716D01*
X173326538Y-132711716D02*
X173326538Y-132426002D01*
X173326538Y-132426002D02*
X173374157Y-132330764D01*
X173374157Y-132330764D02*
X173421776Y-132283145D01*
X173421776Y-132283145D02*
X173517014Y-132235526D01*
X173517014Y-132235526D02*
X173707490Y-132235526D01*
X173707490Y-132235526D02*
X173802728Y-132283145D01*
X174659871Y-132854574D02*
X174564633Y-132902193D01*
X174564633Y-132902193D02*
X174374157Y-132902193D01*
X174374157Y-132902193D02*
X174278919Y-132854574D01*
X174278919Y-132854574D02*
X174231300Y-132759335D01*
X174231300Y-132759335D02*
X174231300Y-132378383D01*
X174231300Y-132378383D02*
X174278919Y-132283145D01*
X174278919Y-132283145D02*
X174374157Y-132235526D01*
X174374157Y-132235526D02*
X174564633Y-132235526D01*
X174564633Y-132235526D02*
X174659871Y-132283145D01*
X174659871Y-132283145D02*
X174707490Y-132378383D01*
X174707490Y-132378383D02*
X174707490Y-132473621D01*
X174707490Y-132473621D02*
X174231300Y-132568859D01*
X175564633Y-132854574D02*
X175469395Y-132902193D01*
X175469395Y-132902193D02*
X175278919Y-132902193D01*
X175278919Y-132902193D02*
X175183681Y-132854574D01*
X175183681Y-132854574D02*
X175136062Y-132806954D01*
X175136062Y-132806954D02*
X175088443Y-132711716D01*
X175088443Y-132711716D02*
X175088443Y-132426002D01*
X175088443Y-132426002D02*
X175136062Y-132330764D01*
X175136062Y-132330764D02*
X175183681Y-132283145D01*
X175183681Y-132283145D02*
X175278919Y-132235526D01*
X175278919Y-132235526D02*
X175469395Y-132235526D01*
X175469395Y-132235526D02*
X175564633Y-132283145D01*
X176374157Y-132854574D02*
X176278919Y-132902193D01*
X176278919Y-132902193D02*
X176088443Y-132902193D01*
X176088443Y-132902193D02*
X175993205Y-132854574D01*
X175993205Y-132854574D02*
X175945586Y-132759335D01*
X175945586Y-132759335D02*
X175945586Y-132378383D01*
X175945586Y-132378383D02*
X175993205Y-132283145D01*
X175993205Y-132283145D02*
X176088443Y-132235526D01*
X176088443Y-132235526D02*
X176278919Y-132235526D01*
X176278919Y-132235526D02*
X176374157Y-132283145D01*
X176374157Y-132283145D02*
X176421776Y-132378383D01*
X176421776Y-132378383D02*
X176421776Y-132473621D01*
X176421776Y-132473621D02*
X175945586Y-132568859D01*
X176850348Y-132902193D02*
X176850348Y-132235526D01*
X176850348Y-132330764D02*
X176897967Y-132283145D01*
X176897967Y-132283145D02*
X176993205Y-132235526D01*
X176993205Y-132235526D02*
X177136062Y-132235526D01*
X177136062Y-132235526D02*
X177231300Y-132283145D01*
X177231300Y-132283145D02*
X177278919Y-132378383D01*
X177278919Y-132378383D02*
X177278919Y-132902193D01*
X177278919Y-132378383D02*
X177326538Y-132283145D01*
X177326538Y-132283145D02*
X177421776Y-132235526D01*
X177421776Y-132235526D02*
X177564633Y-132235526D01*
X177564633Y-132235526D02*
X177659872Y-132283145D01*
X177659872Y-132283145D02*
X177707491Y-132378383D01*
X177707491Y-132378383D02*
X177707491Y-132902193D01*
X178183681Y-132902193D02*
X178183681Y-131902193D01*
X178183681Y-132283145D02*
X178278919Y-132235526D01*
X178278919Y-132235526D02*
X178469395Y-132235526D01*
X178469395Y-132235526D02*
X178564633Y-132283145D01*
X178564633Y-132283145D02*
X178612252Y-132330764D01*
X178612252Y-132330764D02*
X178659871Y-132426002D01*
X178659871Y-132426002D02*
X178659871Y-132711716D01*
X178659871Y-132711716D02*
X178612252Y-132806954D01*
X178612252Y-132806954D02*
X178564633Y-132854574D01*
X178564633Y-132854574D02*
X178469395Y-132902193D01*
X178469395Y-132902193D02*
X178278919Y-132902193D01*
X178278919Y-132902193D02*
X178183681Y-132854574D01*
X179469395Y-132854574D02*
X179374157Y-132902193D01*
X179374157Y-132902193D02*
X179183681Y-132902193D01*
X179183681Y-132902193D02*
X179088443Y-132854574D01*
X179088443Y-132854574D02*
X179040824Y-132759335D01*
X179040824Y-132759335D02*
X179040824Y-132378383D01*
X179040824Y-132378383D02*
X179088443Y-132283145D01*
X179088443Y-132283145D02*
X179183681Y-132235526D01*
X179183681Y-132235526D02*
X179374157Y-132235526D01*
X179374157Y-132235526D02*
X179469395Y-132283145D01*
X179469395Y-132283145D02*
X179517014Y-132378383D01*
X179517014Y-132378383D02*
X179517014Y-132473621D01*
X179517014Y-132473621D02*
X179040824Y-132568859D01*
X179945586Y-132902193D02*
X179945586Y-132235526D01*
X179945586Y-132426002D02*
X179993205Y-132330764D01*
X179993205Y-132330764D02*
X180040824Y-132283145D01*
X180040824Y-132283145D02*
X180136062Y-132235526D01*
X180136062Y-132235526D02*
X180231300Y-132235526D01*
X181278920Y-131997431D02*
X181326539Y-131949812D01*
X181326539Y-131949812D02*
X181421777Y-131902193D01*
X181421777Y-131902193D02*
X181659872Y-131902193D01*
X181659872Y-131902193D02*
X181755110Y-131949812D01*
X181755110Y-131949812D02*
X181802729Y-131997431D01*
X181802729Y-131997431D02*
X181850348Y-132092669D01*
X181850348Y-132092669D02*
X181850348Y-132187907D01*
X181850348Y-132187907D02*
X181802729Y-132330764D01*
X181802729Y-132330764D02*
X181231301Y-132902193D01*
X181231301Y-132902193D02*
X181850348Y-132902193D01*
X182469396Y-131902193D02*
X182564634Y-131902193D01*
X182564634Y-131902193D02*
X182659872Y-131949812D01*
X182659872Y-131949812D02*
X182707491Y-131997431D01*
X182707491Y-131997431D02*
X182755110Y-132092669D01*
X182755110Y-132092669D02*
X182802729Y-132283145D01*
X182802729Y-132283145D02*
X182802729Y-132521240D01*
X182802729Y-132521240D02*
X182755110Y-132711716D01*
X182755110Y-132711716D02*
X182707491Y-132806954D01*
X182707491Y-132806954D02*
X182659872Y-132854574D01*
X182659872Y-132854574D02*
X182564634Y-132902193D01*
X182564634Y-132902193D02*
X182469396Y-132902193D01*
X182469396Y-132902193D02*
X182374158Y-132854574D01*
X182374158Y-132854574D02*
X182326539Y-132806954D01*
X182326539Y-132806954D02*
X182278920Y-132711716D01*
X182278920Y-132711716D02*
X182231301Y-132521240D01*
X182231301Y-132521240D02*
X182231301Y-132283145D01*
X182231301Y-132283145D02*
X182278920Y-132092669D01*
X182278920Y-132092669D02*
X182326539Y-131997431D01*
X182326539Y-131997431D02*
X182374158Y-131949812D01*
X182374158Y-131949812D02*
X182469396Y-131902193D01*
X183183682Y-131997431D02*
X183231301Y-131949812D01*
X183231301Y-131949812D02*
X183326539Y-131902193D01*
X183326539Y-131902193D02*
X183564634Y-131902193D01*
X183564634Y-131902193D02*
X183659872Y-131949812D01*
X183659872Y-131949812D02*
X183707491Y-131997431D01*
X183707491Y-131997431D02*
X183755110Y-132092669D01*
X183755110Y-132092669D02*
X183755110Y-132187907D01*
X183755110Y-132187907D02*
X183707491Y-132330764D01*
X183707491Y-132330764D02*
X183136063Y-132902193D01*
X183136063Y-132902193D02*
X183755110Y-132902193D01*
X184612253Y-132235526D02*
X184612253Y-132902193D01*
X184374158Y-131854574D02*
X184136063Y-132568859D01*
X184136063Y-132568859D02*
X184755110Y-132568859D01*
X173278919Y-134652193D02*
X173517014Y-135652193D01*
X173517014Y-135652193D02*
X173707490Y-134937907D01*
X173707490Y-134937907D02*
X173897966Y-135652193D01*
X173897966Y-135652193D02*
X174136062Y-134652193D01*
X174945585Y-135652193D02*
X174945585Y-135128383D01*
X174945585Y-135128383D02*
X174897966Y-135033145D01*
X174897966Y-135033145D02*
X174802728Y-134985526D01*
X174802728Y-134985526D02*
X174612252Y-134985526D01*
X174612252Y-134985526D02*
X174517014Y-135033145D01*
X174945585Y-135604574D02*
X174850347Y-135652193D01*
X174850347Y-135652193D02*
X174612252Y-135652193D01*
X174612252Y-135652193D02*
X174517014Y-135604574D01*
X174517014Y-135604574D02*
X174469395Y-135509335D01*
X174469395Y-135509335D02*
X174469395Y-135414097D01*
X174469395Y-135414097D02*
X174517014Y-135318859D01*
X174517014Y-135318859D02*
X174612252Y-135271240D01*
X174612252Y-135271240D02*
X174850347Y-135271240D01*
X174850347Y-135271240D02*
X174945585Y-135223621D01*
X175326538Y-134985526D02*
X175564633Y-135652193D01*
X175802728Y-134985526D02*
X175564633Y-135652193D01*
X175564633Y-135652193D02*
X175469395Y-135890288D01*
X175469395Y-135890288D02*
X175421776Y-135937907D01*
X175421776Y-135937907D02*
X175326538Y-135985526D01*
X176088443Y-134652193D02*
X176326538Y-135652193D01*
X176326538Y-135652193D02*
X176517014Y-134937907D01*
X176517014Y-134937907D02*
X176707490Y-135652193D01*
X176707490Y-135652193D02*
X176945586Y-134652193D01*
X177755109Y-135652193D02*
X177755109Y-135128383D01*
X177755109Y-135128383D02*
X177707490Y-135033145D01*
X177707490Y-135033145D02*
X177612252Y-134985526D01*
X177612252Y-134985526D02*
X177421776Y-134985526D01*
X177421776Y-134985526D02*
X177326538Y-135033145D01*
X177755109Y-135604574D02*
X177659871Y-135652193D01*
X177659871Y-135652193D02*
X177421776Y-135652193D01*
X177421776Y-135652193D02*
X177326538Y-135604574D01*
X177326538Y-135604574D02*
X177278919Y-135509335D01*
X177278919Y-135509335D02*
X177278919Y-135414097D01*
X177278919Y-135414097D02*
X177326538Y-135318859D01*
X177326538Y-135318859D02*
X177421776Y-135271240D01*
X177421776Y-135271240D02*
X177659871Y-135271240D01*
X177659871Y-135271240D02*
X177755109Y-135223621D01*
X178136062Y-134985526D02*
X178374157Y-135652193D01*
X178612252Y-134985526D02*
X178374157Y-135652193D01*
X178374157Y-135652193D02*
X178278919Y-135890288D01*
X178278919Y-135890288D02*
X178231300Y-135937907D01*
X178231300Y-135937907D02*
X178136062Y-135985526D01*
X178897967Y-134652193D02*
X179136062Y-135652193D01*
X179136062Y-135652193D02*
X179326538Y-134937907D01*
X179326538Y-134937907D02*
X179517014Y-135652193D01*
X179517014Y-135652193D02*
X179755110Y-134652193D01*
X180564633Y-135652193D02*
X180564633Y-135128383D01*
X180564633Y-135128383D02*
X180517014Y-135033145D01*
X180517014Y-135033145D02*
X180421776Y-134985526D01*
X180421776Y-134985526D02*
X180231300Y-134985526D01*
X180231300Y-134985526D02*
X180136062Y-135033145D01*
X180564633Y-135604574D02*
X180469395Y-135652193D01*
X180469395Y-135652193D02*
X180231300Y-135652193D01*
X180231300Y-135652193D02*
X180136062Y-135604574D01*
X180136062Y-135604574D02*
X180088443Y-135509335D01*
X180088443Y-135509335D02*
X180088443Y-135414097D01*
X180088443Y-135414097D02*
X180136062Y-135318859D01*
X180136062Y-135318859D02*
X180231300Y-135271240D01*
X180231300Y-135271240D02*
X180469395Y-135271240D01*
X180469395Y-135271240D02*
X180564633Y-135223621D01*
X180945586Y-134985526D02*
X181183681Y-135652193D01*
X181421776Y-134985526D02*
X181183681Y-135652193D01*
X181183681Y-135652193D02*
X181088443Y-135890288D01*
X181088443Y-135890288D02*
X181040824Y-135937907D01*
X181040824Y-135937907D02*
X180945586Y-135985526D01*
D11*
X158766837Y-71480847D02*
X158881123Y-71518942D01*
X158881123Y-71518942D02*
X158919218Y-71557038D01*
X158919218Y-71557038D02*
X158957314Y-71633228D01*
X158957314Y-71633228D02*
X158957314Y-71747514D01*
X158957314Y-71747514D02*
X158919218Y-71823704D01*
X158919218Y-71823704D02*
X158881123Y-71861800D01*
X158881123Y-71861800D02*
X158804933Y-71899895D01*
X158804933Y-71899895D02*
X158500171Y-71899895D01*
X158500171Y-71899895D02*
X158500171Y-71099895D01*
X158500171Y-71099895D02*
X158766837Y-71099895D01*
X158766837Y-71099895D02*
X158843028Y-71137990D01*
X158843028Y-71137990D02*
X158881123Y-71176085D01*
X158881123Y-71176085D02*
X158919218Y-71252276D01*
X158919218Y-71252276D02*
X158919218Y-71328466D01*
X158919218Y-71328466D02*
X158881123Y-71404657D01*
X158881123Y-71404657D02*
X158843028Y-71442752D01*
X158843028Y-71442752D02*
X158766837Y-71480847D01*
X158766837Y-71480847D02*
X158500171Y-71480847D01*
X159223980Y-71099895D02*
X159757314Y-71099895D01*
X159757314Y-71099895D02*
X159223980Y-71899895D01*
X159223980Y-71899895D02*
X159757314Y-71899895D01*
X160481123Y-71899895D02*
X160023980Y-71899895D01*
X160252552Y-71899895D02*
X160252552Y-71099895D01*
X160252552Y-71099895D02*
X160176361Y-71214180D01*
X160176361Y-71214180D02*
X160100171Y-71290371D01*
X160100171Y-71290371D02*
X160023980Y-71328466D01*
X151833895Y-128920932D02*
X151452942Y-129187599D01*
X151833895Y-129378075D02*
X151033895Y-129378075D01*
X151033895Y-129378075D02*
X151033895Y-129073313D01*
X151033895Y-129073313D02*
X151071990Y-128997123D01*
X151071990Y-128997123D02*
X151110085Y-128959028D01*
X151110085Y-128959028D02*
X151186276Y-128920932D01*
X151186276Y-128920932D02*
X151300561Y-128920932D01*
X151300561Y-128920932D02*
X151376752Y-128959028D01*
X151376752Y-128959028D02*
X151414847Y-128997123D01*
X151414847Y-128997123D02*
X151452942Y-129073313D01*
X151452942Y-129073313D02*
X151452942Y-129378075D01*
X151110085Y-128616171D02*
X151071990Y-128578075D01*
X151071990Y-128578075D02*
X151033895Y-128501885D01*
X151033895Y-128501885D02*
X151033895Y-128311409D01*
X151033895Y-128311409D02*
X151071990Y-128235218D01*
X151071990Y-128235218D02*
X151110085Y-128197123D01*
X151110085Y-128197123D02*
X151186276Y-128159028D01*
X151186276Y-128159028D02*
X151262466Y-128159028D01*
X151262466Y-128159028D02*
X151376752Y-128197123D01*
X151376752Y-128197123D02*
X151833895Y-128654266D01*
X151833895Y-128654266D02*
X151833895Y-128159028D01*
X170772671Y-78086341D02*
X170391718Y-78353008D01*
X170772671Y-78543484D02*
X169972671Y-78543484D01*
X169972671Y-78543484D02*
X169972671Y-78238722D01*
X169972671Y-78238722D02*
X170010766Y-78162532D01*
X170010766Y-78162532D02*
X170048861Y-78124437D01*
X170048861Y-78124437D02*
X170125052Y-78086341D01*
X170125052Y-78086341D02*
X170239337Y-78086341D01*
X170239337Y-78086341D02*
X170315528Y-78124437D01*
X170315528Y-78124437D02*
X170353623Y-78162532D01*
X170353623Y-78162532D02*
X170391718Y-78238722D01*
X170391718Y-78238722D02*
X170391718Y-78543484D01*
X170772671Y-77324437D02*
X170772671Y-77781580D01*
X170772671Y-77553008D02*
X169972671Y-77553008D01*
X169972671Y-77553008D02*
X170086956Y-77629199D01*
X170086956Y-77629199D02*
X170163147Y-77705389D01*
X170163147Y-77705389D02*
X170201242Y-77781580D01*
X170772671Y-76943484D02*
X170772671Y-76791103D01*
X170772671Y-76791103D02*
X170734576Y-76714913D01*
X170734576Y-76714913D02*
X170696480Y-76676817D01*
X170696480Y-76676817D02*
X170582195Y-76600627D01*
X170582195Y-76600627D02*
X170429814Y-76562532D01*
X170429814Y-76562532D02*
X170125052Y-76562532D01*
X170125052Y-76562532D02*
X170048861Y-76600627D01*
X170048861Y-76600627D02*
X170010766Y-76638722D01*
X170010766Y-76638722D02*
X169972671Y-76714913D01*
X169972671Y-76714913D02*
X169972671Y-76867294D01*
X169972671Y-76867294D02*
X170010766Y-76943484D01*
X170010766Y-76943484D02*
X170048861Y-76981579D01*
X170048861Y-76981579D02*
X170125052Y-77019675D01*
X170125052Y-77019675D02*
X170315528Y-77019675D01*
X170315528Y-77019675D02*
X170391718Y-76981579D01*
X170391718Y-76981579D02*
X170429814Y-76943484D01*
X170429814Y-76943484D02*
X170467909Y-76867294D01*
X170467909Y-76867294D02*
X170467909Y-76714913D01*
X170467909Y-76714913D02*
X170429814Y-76638722D01*
X170429814Y-76638722D02*
X170391718Y-76600627D01*
X170391718Y-76600627D02*
X170315528Y-76562532D01*
X159887076Y-113144895D02*
X159887076Y-113792514D01*
X159887076Y-113792514D02*
X159925171Y-113868704D01*
X159925171Y-113868704D02*
X159963266Y-113906800D01*
X159963266Y-113906800D02*
X160039457Y-113944895D01*
X160039457Y-113944895D02*
X160191838Y-113944895D01*
X160191838Y-113944895D02*
X160268028Y-113906800D01*
X160268028Y-113906800D02*
X160306123Y-113868704D01*
X160306123Y-113868704D02*
X160344219Y-113792514D01*
X160344219Y-113792514D02*
X160344219Y-113144895D01*
X160687075Y-113221085D02*
X160725171Y-113182990D01*
X160725171Y-113182990D02*
X160801361Y-113144895D01*
X160801361Y-113144895D02*
X160991837Y-113144895D01*
X160991837Y-113144895D02*
X161068028Y-113182990D01*
X161068028Y-113182990D02*
X161106123Y-113221085D01*
X161106123Y-113221085D02*
X161144218Y-113297276D01*
X161144218Y-113297276D02*
X161144218Y-113373466D01*
X161144218Y-113373466D02*
X161106123Y-113487752D01*
X161106123Y-113487752D02*
X160648980Y-113944895D01*
X160648980Y-113944895D02*
X161144218Y-113944895D01*
X167270409Y-71476019D02*
X167194219Y-71437924D01*
X167194219Y-71437924D02*
X167118028Y-71361734D01*
X167118028Y-71361734D02*
X167003742Y-71247448D01*
X167003742Y-71247448D02*
X166927552Y-71209353D01*
X166927552Y-71209353D02*
X166851361Y-71209353D01*
X166889457Y-71399829D02*
X166813266Y-71361734D01*
X166813266Y-71361734D02*
X166737076Y-71285543D01*
X166737076Y-71285543D02*
X166698980Y-71133162D01*
X166698980Y-71133162D02*
X166698980Y-70866495D01*
X166698980Y-70866495D02*
X166737076Y-70714114D01*
X166737076Y-70714114D02*
X166813266Y-70637924D01*
X166813266Y-70637924D02*
X166889457Y-70599829D01*
X166889457Y-70599829D02*
X167041838Y-70599829D01*
X167041838Y-70599829D02*
X167118028Y-70637924D01*
X167118028Y-70637924D02*
X167194219Y-70714114D01*
X167194219Y-70714114D02*
X167232314Y-70866495D01*
X167232314Y-70866495D02*
X167232314Y-71133162D01*
X167232314Y-71133162D02*
X167194219Y-71285543D01*
X167194219Y-71285543D02*
X167118028Y-71361734D01*
X167118028Y-71361734D02*
X167041838Y-71399829D01*
X167041838Y-71399829D02*
X166889457Y-71399829D01*
X167994218Y-71399829D02*
X167537075Y-71399829D01*
X167765647Y-71399829D02*
X167765647Y-70599829D01*
X167765647Y-70599829D02*
X167689456Y-70714114D01*
X167689456Y-70714114D02*
X167613266Y-70790305D01*
X167613266Y-70790305D02*
X167537075Y-70828400D01*
X150588267Y-115899895D02*
X150321600Y-115518942D01*
X150131124Y-115899895D02*
X150131124Y-115099895D01*
X150131124Y-115099895D02*
X150435886Y-115099895D01*
X150435886Y-115099895D02*
X150512076Y-115137990D01*
X150512076Y-115137990D02*
X150550171Y-115176085D01*
X150550171Y-115176085D02*
X150588267Y-115252276D01*
X150588267Y-115252276D02*
X150588267Y-115366561D01*
X150588267Y-115366561D02*
X150550171Y-115442752D01*
X150550171Y-115442752D02*
X150512076Y-115480847D01*
X150512076Y-115480847D02*
X150435886Y-115518942D01*
X150435886Y-115518942D02*
X150131124Y-115518942D01*
X151312076Y-115099895D02*
X150931124Y-115099895D01*
X150931124Y-115099895D02*
X150893028Y-115480847D01*
X150893028Y-115480847D02*
X150931124Y-115442752D01*
X150931124Y-115442752D02*
X151007314Y-115404657D01*
X151007314Y-115404657D02*
X151197790Y-115404657D01*
X151197790Y-115404657D02*
X151273981Y-115442752D01*
X151273981Y-115442752D02*
X151312076Y-115480847D01*
X151312076Y-115480847D02*
X151350171Y-115557038D01*
X151350171Y-115557038D02*
X151350171Y-115747514D01*
X151350171Y-115747514D02*
X151312076Y-115823704D01*
X151312076Y-115823704D02*
X151273981Y-115861800D01*
X151273981Y-115861800D02*
X151197790Y-115899895D01*
X151197790Y-115899895D02*
X151007314Y-115899895D01*
X151007314Y-115899895D02*
X150931124Y-115861800D01*
X150931124Y-115861800D02*
X150893028Y-115823704D01*
X159887076Y-81349895D02*
X159887076Y-81997514D01*
X159887076Y-81997514D02*
X159925171Y-82073704D01*
X159925171Y-82073704D02*
X159963266Y-82111800D01*
X159963266Y-82111800D02*
X160039457Y-82149895D01*
X160039457Y-82149895D02*
X160191838Y-82149895D01*
X160191838Y-82149895D02*
X160268028Y-82111800D01*
X160268028Y-82111800D02*
X160306123Y-82073704D01*
X160306123Y-82073704D02*
X160344219Y-81997514D01*
X160344219Y-81997514D02*
X160344219Y-81349895D01*
X161068028Y-81616561D02*
X161068028Y-82149895D01*
X160877552Y-81311800D02*
X160687075Y-81883228D01*
X160687075Y-81883228D02*
X161182314Y-81883228D01*
X149957314Y-91649895D02*
X149690647Y-91268942D01*
X149500171Y-91649895D02*
X149500171Y-90849895D01*
X149500171Y-90849895D02*
X149804933Y-90849895D01*
X149804933Y-90849895D02*
X149881123Y-90887990D01*
X149881123Y-90887990D02*
X149919218Y-90926085D01*
X149919218Y-90926085D02*
X149957314Y-91002276D01*
X149957314Y-91002276D02*
X149957314Y-91116561D01*
X149957314Y-91116561D02*
X149919218Y-91192752D01*
X149919218Y-91192752D02*
X149881123Y-91230847D01*
X149881123Y-91230847D02*
X149804933Y-91268942D01*
X149804933Y-91268942D02*
X149500171Y-91268942D01*
X150262075Y-90926085D02*
X150300171Y-90887990D01*
X150300171Y-90887990D02*
X150376361Y-90849895D01*
X150376361Y-90849895D02*
X150566837Y-90849895D01*
X150566837Y-90849895D02*
X150643028Y-90887990D01*
X150643028Y-90887990D02*
X150681123Y-90926085D01*
X150681123Y-90926085D02*
X150719218Y-91002276D01*
X150719218Y-91002276D02*
X150719218Y-91078466D01*
X150719218Y-91078466D02*
X150681123Y-91192752D01*
X150681123Y-91192752D02*
X150223980Y-91649895D01*
X150223980Y-91649895D02*
X150719218Y-91649895D01*
X150985885Y-90849895D02*
X151519219Y-90849895D01*
X151519219Y-90849895D02*
X151176361Y-91649895D01*
X139637067Y-131099860D02*
X139637067Y-131747479D01*
X139637067Y-131747479D02*
X139675162Y-131823669D01*
X139675162Y-131823669D02*
X139713257Y-131861765D01*
X139713257Y-131861765D02*
X139789448Y-131899860D01*
X139789448Y-131899860D02*
X139941829Y-131899860D01*
X139941829Y-131899860D02*
X140018019Y-131861765D01*
X140018019Y-131861765D02*
X140056114Y-131823669D01*
X140056114Y-131823669D02*
X140094210Y-131747479D01*
X140094210Y-131747479D02*
X140094210Y-131099860D01*
X140894209Y-131899860D02*
X140437066Y-131899860D01*
X140665638Y-131899860D02*
X140665638Y-131099860D01*
X140665638Y-131099860D02*
X140589447Y-131214145D01*
X140589447Y-131214145D02*
X140513257Y-131290336D01*
X140513257Y-131290336D02*
X140437066Y-131328431D01*
X130537815Y-121625496D02*
X130537815Y-122196924D01*
X130537815Y-122196924D02*
X130499720Y-122311210D01*
X130499720Y-122311210D02*
X130423529Y-122387401D01*
X130423529Y-122387401D02*
X130309244Y-122425496D01*
X130309244Y-122425496D02*
X130233053Y-122425496D01*
X130880672Y-121701686D02*
X130918768Y-121663591D01*
X130918768Y-121663591D02*
X130994958Y-121625496D01*
X130994958Y-121625496D02*
X131185434Y-121625496D01*
X131185434Y-121625496D02*
X131261625Y-121663591D01*
X131261625Y-121663591D02*
X131299720Y-121701686D01*
X131299720Y-121701686D02*
X131337815Y-121777877D01*
X131337815Y-121777877D02*
X131337815Y-121854067D01*
X131337815Y-121854067D02*
X131299720Y-121968353D01*
X131299720Y-121968353D02*
X130842577Y-122425496D01*
X130842577Y-122425496D02*
X131337815Y-122425496D01*
X143088267Y-121573704D02*
X143050171Y-121611800D01*
X143050171Y-121611800D02*
X142935886Y-121649895D01*
X142935886Y-121649895D02*
X142859695Y-121649895D01*
X142859695Y-121649895D02*
X142745409Y-121611800D01*
X142745409Y-121611800D02*
X142669219Y-121535609D01*
X142669219Y-121535609D02*
X142631124Y-121459419D01*
X142631124Y-121459419D02*
X142593028Y-121307038D01*
X142593028Y-121307038D02*
X142593028Y-121192752D01*
X142593028Y-121192752D02*
X142631124Y-121040371D01*
X142631124Y-121040371D02*
X142669219Y-120964180D01*
X142669219Y-120964180D02*
X142745409Y-120887990D01*
X142745409Y-120887990D02*
X142859695Y-120849895D01*
X142859695Y-120849895D02*
X142935886Y-120849895D01*
X142935886Y-120849895D02*
X143050171Y-120887990D01*
X143050171Y-120887990D02*
X143088267Y-120926085D01*
X143773981Y-121116561D02*
X143773981Y-121649895D01*
X143583505Y-120811800D02*
X143393028Y-121383228D01*
X143393028Y-121383228D02*
X143888267Y-121383228D01*
X169956991Y-91223481D02*
X169576038Y-91490148D01*
X169956991Y-91680624D02*
X169156991Y-91680624D01*
X169156991Y-91680624D02*
X169156991Y-91375862D01*
X169156991Y-91375862D02*
X169195086Y-91299672D01*
X169195086Y-91299672D02*
X169233181Y-91261577D01*
X169233181Y-91261577D02*
X169309372Y-91223481D01*
X169309372Y-91223481D02*
X169423657Y-91223481D01*
X169423657Y-91223481D02*
X169499848Y-91261577D01*
X169499848Y-91261577D02*
X169537943Y-91299672D01*
X169537943Y-91299672D02*
X169576038Y-91375862D01*
X169576038Y-91375862D02*
X169576038Y-91680624D01*
X169233181Y-90918720D02*
X169195086Y-90880624D01*
X169195086Y-90880624D02*
X169156991Y-90804434D01*
X169156991Y-90804434D02*
X169156991Y-90613958D01*
X169156991Y-90613958D02*
X169195086Y-90537767D01*
X169195086Y-90537767D02*
X169233181Y-90499672D01*
X169233181Y-90499672D02*
X169309372Y-90461577D01*
X169309372Y-90461577D02*
X169385562Y-90461577D01*
X169385562Y-90461577D02*
X169499848Y-90499672D01*
X169499848Y-90499672D02*
X169956991Y-90956815D01*
X169956991Y-90956815D02*
X169956991Y-90461577D01*
X169956991Y-89699672D02*
X169956991Y-90156815D01*
X169956991Y-89928243D02*
X169156991Y-89928243D01*
X169156991Y-89928243D02*
X169271276Y-90004434D01*
X169271276Y-90004434D02*
X169347467Y-90080624D01*
X169347467Y-90080624D02*
X169385562Y-90156815D01*
X143063258Y-123833669D02*
X143025162Y-123871765D01*
X143025162Y-123871765D02*
X142910877Y-123909860D01*
X142910877Y-123909860D02*
X142834686Y-123909860D01*
X142834686Y-123909860D02*
X142720400Y-123871765D01*
X142720400Y-123871765D02*
X142644210Y-123795574D01*
X142644210Y-123795574D02*
X142606115Y-123719384D01*
X142606115Y-123719384D02*
X142568019Y-123567003D01*
X142568019Y-123567003D02*
X142568019Y-123452717D01*
X142568019Y-123452717D02*
X142606115Y-123300336D01*
X142606115Y-123300336D02*
X142644210Y-123224145D01*
X142644210Y-123224145D02*
X142720400Y-123147955D01*
X142720400Y-123147955D02*
X142834686Y-123109860D01*
X142834686Y-123109860D02*
X142910877Y-123109860D01*
X142910877Y-123109860D02*
X143025162Y-123147955D01*
X143025162Y-123147955D02*
X143063258Y-123186050D01*
X143825162Y-123909860D02*
X143368019Y-123909860D01*
X143596591Y-123909860D02*
X143596591Y-123109860D01*
X143596591Y-123109860D02*
X143520400Y-123224145D01*
X143520400Y-123224145D02*
X143444210Y-123300336D01*
X143444210Y-123300336D02*
X143368019Y-123338431D01*
X149957314Y-81649895D02*
X149690647Y-81268942D01*
X149500171Y-81649895D02*
X149500171Y-80849895D01*
X149500171Y-80849895D02*
X149804933Y-80849895D01*
X149804933Y-80849895D02*
X149881123Y-80887990D01*
X149881123Y-80887990D02*
X149919218Y-80926085D01*
X149919218Y-80926085D02*
X149957314Y-81002276D01*
X149957314Y-81002276D02*
X149957314Y-81116561D01*
X149957314Y-81116561D02*
X149919218Y-81192752D01*
X149919218Y-81192752D02*
X149881123Y-81230847D01*
X149881123Y-81230847D02*
X149804933Y-81268942D01*
X149804933Y-81268942D02*
X149500171Y-81268942D01*
X150262075Y-80926085D02*
X150300171Y-80887990D01*
X150300171Y-80887990D02*
X150376361Y-80849895D01*
X150376361Y-80849895D02*
X150566837Y-80849895D01*
X150566837Y-80849895D02*
X150643028Y-80887990D01*
X150643028Y-80887990D02*
X150681123Y-80926085D01*
X150681123Y-80926085D02*
X150719218Y-81002276D01*
X150719218Y-81002276D02*
X150719218Y-81078466D01*
X150719218Y-81078466D02*
X150681123Y-81192752D01*
X150681123Y-81192752D02*
X150223980Y-81649895D01*
X150223980Y-81649895D02*
X150719218Y-81649895D01*
X151023980Y-80926085D02*
X151062076Y-80887990D01*
X151062076Y-80887990D02*
X151138266Y-80849895D01*
X151138266Y-80849895D02*
X151328742Y-80849895D01*
X151328742Y-80849895D02*
X151404933Y-80887990D01*
X151404933Y-80887990D02*
X151443028Y-80926085D01*
X151443028Y-80926085D02*
X151481123Y-81002276D01*
X151481123Y-81002276D02*
X151481123Y-81078466D01*
X151481123Y-81078466D02*
X151443028Y-81192752D01*
X151443028Y-81192752D02*
X150985885Y-81649895D01*
X150985885Y-81649895D02*
X151481123Y-81649895D01*
X159957314Y-59649895D02*
X159690647Y-59268942D01*
X159500171Y-59649895D02*
X159500171Y-58849895D01*
X159500171Y-58849895D02*
X159804933Y-58849895D01*
X159804933Y-58849895D02*
X159881123Y-58887990D01*
X159881123Y-58887990D02*
X159919218Y-58926085D01*
X159919218Y-58926085D02*
X159957314Y-59002276D01*
X159957314Y-59002276D02*
X159957314Y-59116561D01*
X159957314Y-59116561D02*
X159919218Y-59192752D01*
X159919218Y-59192752D02*
X159881123Y-59230847D01*
X159881123Y-59230847D02*
X159804933Y-59268942D01*
X159804933Y-59268942D02*
X159500171Y-59268942D01*
X160262075Y-58926085D02*
X160300171Y-58887990D01*
X160300171Y-58887990D02*
X160376361Y-58849895D01*
X160376361Y-58849895D02*
X160566837Y-58849895D01*
X160566837Y-58849895D02*
X160643028Y-58887990D01*
X160643028Y-58887990D02*
X160681123Y-58926085D01*
X160681123Y-58926085D02*
X160719218Y-59002276D01*
X160719218Y-59002276D02*
X160719218Y-59078466D01*
X160719218Y-59078466D02*
X160681123Y-59192752D01*
X160681123Y-59192752D02*
X160223980Y-59649895D01*
X160223980Y-59649895D02*
X160719218Y-59649895D01*
X161100171Y-59649895D02*
X161252552Y-59649895D01*
X161252552Y-59649895D02*
X161328742Y-59611800D01*
X161328742Y-59611800D02*
X161366838Y-59573704D01*
X161366838Y-59573704D02*
X161443028Y-59459419D01*
X161443028Y-59459419D02*
X161481123Y-59307038D01*
X161481123Y-59307038D02*
X161481123Y-59002276D01*
X161481123Y-59002276D02*
X161443028Y-58926085D01*
X161443028Y-58926085D02*
X161404933Y-58887990D01*
X161404933Y-58887990D02*
X161328742Y-58849895D01*
X161328742Y-58849895D02*
X161176361Y-58849895D01*
X161176361Y-58849895D02*
X161100171Y-58887990D01*
X161100171Y-58887990D02*
X161062076Y-58926085D01*
X161062076Y-58926085D02*
X161023980Y-59002276D01*
X161023980Y-59002276D02*
X161023980Y-59192752D01*
X161023980Y-59192752D02*
X161062076Y-59268942D01*
X161062076Y-59268942D02*
X161100171Y-59307038D01*
X161100171Y-59307038D02*
X161176361Y-59345133D01*
X161176361Y-59345133D02*
X161328742Y-59345133D01*
X161328742Y-59345133D02*
X161404933Y-59307038D01*
X161404933Y-59307038D02*
X161443028Y-59268942D01*
X161443028Y-59268942D02*
X161481123Y-59192752D01*
X166338267Y-97148704D02*
X166300171Y-97186800D01*
X166300171Y-97186800D02*
X166185886Y-97224895D01*
X166185886Y-97224895D02*
X166109695Y-97224895D01*
X166109695Y-97224895D02*
X165995409Y-97186800D01*
X165995409Y-97186800D02*
X165919219Y-97110609D01*
X165919219Y-97110609D02*
X165881124Y-97034419D01*
X165881124Y-97034419D02*
X165843028Y-96882038D01*
X165843028Y-96882038D02*
X165843028Y-96767752D01*
X165843028Y-96767752D02*
X165881124Y-96615371D01*
X165881124Y-96615371D02*
X165919219Y-96539180D01*
X165919219Y-96539180D02*
X165995409Y-96462990D01*
X165995409Y-96462990D02*
X166109695Y-96424895D01*
X166109695Y-96424895D02*
X166185886Y-96424895D01*
X166185886Y-96424895D02*
X166300171Y-96462990D01*
X166300171Y-96462990D02*
X166338267Y-96501085D01*
X166604933Y-96424895D02*
X167100171Y-96424895D01*
X167100171Y-96424895D02*
X166833505Y-96729657D01*
X166833505Y-96729657D02*
X166947790Y-96729657D01*
X166947790Y-96729657D02*
X167023981Y-96767752D01*
X167023981Y-96767752D02*
X167062076Y-96805847D01*
X167062076Y-96805847D02*
X167100171Y-96882038D01*
X167100171Y-96882038D02*
X167100171Y-97072514D01*
X167100171Y-97072514D02*
X167062076Y-97148704D01*
X167062076Y-97148704D02*
X167023981Y-97186800D01*
X167023981Y-97186800D02*
X166947790Y-97224895D01*
X166947790Y-97224895D02*
X166719219Y-97224895D01*
X166719219Y-97224895D02*
X166643028Y-97186800D01*
X166643028Y-97186800D02*
X166604933Y-97148704D01*
X171057063Y-126268132D02*
X170676110Y-126534799D01*
X171057063Y-126725275D02*
X170257063Y-126725275D01*
X170257063Y-126725275D02*
X170257063Y-126420513D01*
X170257063Y-126420513D02*
X170295158Y-126344323D01*
X170295158Y-126344323D02*
X170333253Y-126306228D01*
X170333253Y-126306228D02*
X170409444Y-126268132D01*
X170409444Y-126268132D02*
X170523729Y-126268132D01*
X170523729Y-126268132D02*
X170599920Y-126306228D01*
X170599920Y-126306228D02*
X170638015Y-126344323D01*
X170638015Y-126344323D02*
X170676110Y-126420513D01*
X170676110Y-126420513D02*
X170676110Y-126725275D01*
X170257063Y-126001466D02*
X170257063Y-125506228D01*
X170257063Y-125506228D02*
X170561825Y-125772894D01*
X170561825Y-125772894D02*
X170561825Y-125658609D01*
X170561825Y-125658609D02*
X170599920Y-125582418D01*
X170599920Y-125582418D02*
X170638015Y-125544323D01*
X170638015Y-125544323D02*
X170714206Y-125506228D01*
X170714206Y-125506228D02*
X170904682Y-125506228D01*
X170904682Y-125506228D02*
X170980872Y-125544323D01*
X170980872Y-125544323D02*
X171018968Y-125582418D01*
X171018968Y-125582418D02*
X171057063Y-125658609D01*
X171057063Y-125658609D02*
X171057063Y-125887180D01*
X171057063Y-125887180D02*
X171018968Y-125963371D01*
X171018968Y-125963371D02*
X170980872Y-126001466D01*
X150588267Y-113899895D02*
X150321600Y-113518942D01*
X150131124Y-113899895D02*
X150131124Y-113099895D01*
X150131124Y-113099895D02*
X150435886Y-113099895D01*
X150435886Y-113099895D02*
X150512076Y-113137990D01*
X150512076Y-113137990D02*
X150550171Y-113176085D01*
X150550171Y-113176085D02*
X150588267Y-113252276D01*
X150588267Y-113252276D02*
X150588267Y-113366561D01*
X150588267Y-113366561D02*
X150550171Y-113442752D01*
X150550171Y-113442752D02*
X150512076Y-113480847D01*
X150512076Y-113480847D02*
X150435886Y-113518942D01*
X150435886Y-113518942D02*
X150131124Y-113518942D01*
X151273981Y-113366561D02*
X151273981Y-113899895D01*
X151083505Y-113061800D02*
X150893028Y-113633228D01*
X150893028Y-113633228D02*
X151388267Y-113633228D01*
X150588267Y-123899895D02*
X150321600Y-123518942D01*
X150131124Y-123899895D02*
X150131124Y-123099895D01*
X150131124Y-123099895D02*
X150435886Y-123099895D01*
X150435886Y-123099895D02*
X150512076Y-123137990D01*
X150512076Y-123137990D02*
X150550171Y-123176085D01*
X150550171Y-123176085D02*
X150588267Y-123252276D01*
X150588267Y-123252276D02*
X150588267Y-123366561D01*
X150588267Y-123366561D02*
X150550171Y-123442752D01*
X150550171Y-123442752D02*
X150512076Y-123480847D01*
X150512076Y-123480847D02*
X150435886Y-123518942D01*
X150435886Y-123518942D02*
X150131124Y-123518942D01*
X150969219Y-123899895D02*
X151121600Y-123899895D01*
X151121600Y-123899895D02*
X151197790Y-123861800D01*
X151197790Y-123861800D02*
X151235886Y-123823704D01*
X151235886Y-123823704D02*
X151312076Y-123709419D01*
X151312076Y-123709419D02*
X151350171Y-123557038D01*
X151350171Y-123557038D02*
X151350171Y-123252276D01*
X151350171Y-123252276D02*
X151312076Y-123176085D01*
X151312076Y-123176085D02*
X151273981Y-123137990D01*
X151273981Y-123137990D02*
X151197790Y-123099895D01*
X151197790Y-123099895D02*
X151045409Y-123099895D01*
X151045409Y-123099895D02*
X150969219Y-123137990D01*
X150969219Y-123137990D02*
X150931124Y-123176085D01*
X150931124Y-123176085D02*
X150893028Y-123252276D01*
X150893028Y-123252276D02*
X150893028Y-123442752D01*
X150893028Y-123442752D02*
X150931124Y-123518942D01*
X150931124Y-123518942D02*
X150969219Y-123557038D01*
X150969219Y-123557038D02*
X151045409Y-123595133D01*
X151045409Y-123595133D02*
X151197790Y-123595133D01*
X151197790Y-123595133D02*
X151273981Y-123557038D01*
X151273981Y-123557038D02*
X151312076Y-123518942D01*
X151312076Y-123518942D02*
X151350171Y-123442752D01*
X149957314Y-109649895D02*
X149690647Y-109268942D01*
X149500171Y-109649895D02*
X149500171Y-108849895D01*
X149500171Y-108849895D02*
X149804933Y-108849895D01*
X149804933Y-108849895D02*
X149881123Y-108887990D01*
X149881123Y-108887990D02*
X149919218Y-108926085D01*
X149919218Y-108926085D02*
X149957314Y-109002276D01*
X149957314Y-109002276D02*
X149957314Y-109116561D01*
X149957314Y-109116561D02*
X149919218Y-109192752D01*
X149919218Y-109192752D02*
X149881123Y-109230847D01*
X149881123Y-109230847D02*
X149804933Y-109268942D01*
X149804933Y-109268942D02*
X149500171Y-109268942D01*
X150719218Y-109649895D02*
X150262075Y-109649895D01*
X150490647Y-109649895D02*
X150490647Y-108849895D01*
X150490647Y-108849895D02*
X150414456Y-108964180D01*
X150414456Y-108964180D02*
X150338266Y-109040371D01*
X150338266Y-109040371D02*
X150262075Y-109078466D01*
X151176361Y-109192752D02*
X151100171Y-109154657D01*
X151100171Y-109154657D02*
X151062076Y-109116561D01*
X151062076Y-109116561D02*
X151023980Y-109040371D01*
X151023980Y-109040371D02*
X151023980Y-109002276D01*
X151023980Y-109002276D02*
X151062076Y-108926085D01*
X151062076Y-108926085D02*
X151100171Y-108887990D01*
X151100171Y-108887990D02*
X151176361Y-108849895D01*
X151176361Y-108849895D02*
X151328742Y-108849895D01*
X151328742Y-108849895D02*
X151404933Y-108887990D01*
X151404933Y-108887990D02*
X151443028Y-108926085D01*
X151443028Y-108926085D02*
X151481123Y-109002276D01*
X151481123Y-109002276D02*
X151481123Y-109040371D01*
X151481123Y-109040371D02*
X151443028Y-109116561D01*
X151443028Y-109116561D02*
X151404933Y-109154657D01*
X151404933Y-109154657D02*
X151328742Y-109192752D01*
X151328742Y-109192752D02*
X151176361Y-109192752D01*
X151176361Y-109192752D02*
X151100171Y-109230847D01*
X151100171Y-109230847D02*
X151062076Y-109268942D01*
X151062076Y-109268942D02*
X151023980Y-109345133D01*
X151023980Y-109345133D02*
X151023980Y-109497514D01*
X151023980Y-109497514D02*
X151062076Y-109573704D01*
X151062076Y-109573704D02*
X151100171Y-109611800D01*
X151100171Y-109611800D02*
X151176361Y-109649895D01*
X151176361Y-109649895D02*
X151328742Y-109649895D01*
X151328742Y-109649895D02*
X151404933Y-109611800D01*
X151404933Y-109611800D02*
X151443028Y-109573704D01*
X151443028Y-109573704D02*
X151481123Y-109497514D01*
X151481123Y-109497514D02*
X151481123Y-109345133D01*
X151481123Y-109345133D02*
X151443028Y-109268942D01*
X151443028Y-109268942D02*
X151404933Y-109230847D01*
X151404933Y-109230847D02*
X151328742Y-109192752D01*
X149957314Y-101649895D02*
X149690647Y-101268942D01*
X149500171Y-101649895D02*
X149500171Y-100849895D01*
X149500171Y-100849895D02*
X149804933Y-100849895D01*
X149804933Y-100849895D02*
X149881123Y-100887990D01*
X149881123Y-100887990D02*
X149919218Y-100926085D01*
X149919218Y-100926085D02*
X149957314Y-101002276D01*
X149957314Y-101002276D02*
X149957314Y-101116561D01*
X149957314Y-101116561D02*
X149919218Y-101192752D01*
X149919218Y-101192752D02*
X149881123Y-101230847D01*
X149881123Y-101230847D02*
X149804933Y-101268942D01*
X149804933Y-101268942D02*
X149500171Y-101268942D01*
X150719218Y-101649895D02*
X150262075Y-101649895D01*
X150490647Y-101649895D02*
X150490647Y-100849895D01*
X150490647Y-100849895D02*
X150414456Y-100964180D01*
X150414456Y-100964180D02*
X150338266Y-101040371D01*
X150338266Y-101040371D02*
X150262075Y-101078466D01*
X151404933Y-101116561D02*
X151404933Y-101649895D01*
X151214457Y-100811800D02*
X151023980Y-101383228D01*
X151023980Y-101383228D02*
X151519219Y-101383228D01*
X149957314Y-97649895D02*
X149690647Y-97268942D01*
X149500171Y-97649895D02*
X149500171Y-96849895D01*
X149500171Y-96849895D02*
X149804933Y-96849895D01*
X149804933Y-96849895D02*
X149881123Y-96887990D01*
X149881123Y-96887990D02*
X149919218Y-96926085D01*
X149919218Y-96926085D02*
X149957314Y-97002276D01*
X149957314Y-97002276D02*
X149957314Y-97116561D01*
X149957314Y-97116561D02*
X149919218Y-97192752D01*
X149919218Y-97192752D02*
X149881123Y-97230847D01*
X149881123Y-97230847D02*
X149804933Y-97268942D01*
X149804933Y-97268942D02*
X149500171Y-97268942D01*
X150719218Y-97649895D02*
X150262075Y-97649895D01*
X150490647Y-97649895D02*
X150490647Y-96849895D01*
X150490647Y-96849895D02*
X150414456Y-96964180D01*
X150414456Y-96964180D02*
X150338266Y-97040371D01*
X150338266Y-97040371D02*
X150262075Y-97078466D01*
X151023980Y-96926085D02*
X151062076Y-96887990D01*
X151062076Y-96887990D02*
X151138266Y-96849895D01*
X151138266Y-96849895D02*
X151328742Y-96849895D01*
X151328742Y-96849895D02*
X151404933Y-96887990D01*
X151404933Y-96887990D02*
X151443028Y-96926085D01*
X151443028Y-96926085D02*
X151481123Y-97002276D01*
X151481123Y-97002276D02*
X151481123Y-97078466D01*
X151481123Y-97078466D02*
X151443028Y-97192752D01*
X151443028Y-97192752D02*
X150985885Y-97649895D01*
X150985885Y-97649895D02*
X151481123Y-97649895D01*
X164705750Y-69069592D02*
X164324797Y-69336259D01*
X164705750Y-69526735D02*
X163905750Y-69526735D01*
X163905750Y-69526735D02*
X163905750Y-69221973D01*
X163905750Y-69221973D02*
X163943845Y-69145783D01*
X163943845Y-69145783D02*
X163981940Y-69107688D01*
X163981940Y-69107688D02*
X164058131Y-69069592D01*
X164058131Y-69069592D02*
X164172416Y-69069592D01*
X164172416Y-69069592D02*
X164248607Y-69107688D01*
X164248607Y-69107688D02*
X164286702Y-69145783D01*
X164286702Y-69145783D02*
X164324797Y-69221973D01*
X164324797Y-69221973D02*
X164324797Y-69526735D01*
X163981940Y-68764831D02*
X163943845Y-68726735D01*
X163943845Y-68726735D02*
X163905750Y-68650545D01*
X163905750Y-68650545D02*
X163905750Y-68460069D01*
X163905750Y-68460069D02*
X163943845Y-68383878D01*
X163943845Y-68383878D02*
X163981940Y-68345783D01*
X163981940Y-68345783D02*
X164058131Y-68307688D01*
X164058131Y-68307688D02*
X164134321Y-68307688D01*
X164134321Y-68307688D02*
X164248607Y-68345783D01*
X164248607Y-68345783D02*
X164705750Y-68802926D01*
X164705750Y-68802926D02*
X164705750Y-68307688D01*
X163905750Y-67812449D02*
X163905750Y-67736259D01*
X163905750Y-67736259D02*
X163943845Y-67660068D01*
X163943845Y-67660068D02*
X163981940Y-67621973D01*
X163981940Y-67621973D02*
X164058131Y-67583878D01*
X164058131Y-67583878D02*
X164210512Y-67545783D01*
X164210512Y-67545783D02*
X164400988Y-67545783D01*
X164400988Y-67545783D02*
X164553369Y-67583878D01*
X164553369Y-67583878D02*
X164629559Y-67621973D01*
X164629559Y-67621973D02*
X164667655Y-67660068D01*
X164667655Y-67660068D02*
X164705750Y-67736259D01*
X164705750Y-67736259D02*
X164705750Y-67812449D01*
X164705750Y-67812449D02*
X164667655Y-67888640D01*
X164667655Y-67888640D02*
X164629559Y-67926735D01*
X164629559Y-67926735D02*
X164553369Y-67964830D01*
X164553369Y-67964830D02*
X164400988Y-68002926D01*
X164400988Y-68002926D02*
X164210512Y-68002926D01*
X164210512Y-68002926D02*
X164058131Y-67964830D01*
X164058131Y-67964830D02*
X163981940Y-67926735D01*
X163981940Y-67926735D02*
X163943845Y-67888640D01*
X163943845Y-67888640D02*
X163905750Y-67812449D01*
X172131279Y-102076830D02*
X171864612Y-101695877D01*
X171674136Y-102076830D02*
X171674136Y-101276830D01*
X171674136Y-101276830D02*
X171978898Y-101276830D01*
X171978898Y-101276830D02*
X172055088Y-101314925D01*
X172055088Y-101314925D02*
X172093183Y-101353020D01*
X172093183Y-101353020D02*
X172131279Y-101429211D01*
X172131279Y-101429211D02*
X172131279Y-101543496D01*
X172131279Y-101543496D02*
X172093183Y-101619687D01*
X172093183Y-101619687D02*
X172055088Y-101657782D01*
X172055088Y-101657782D02*
X171978898Y-101695877D01*
X171978898Y-101695877D02*
X171674136Y-101695877D01*
X172893183Y-102076830D02*
X172436040Y-102076830D01*
X172664612Y-102076830D02*
X172664612Y-101276830D01*
X172664612Y-101276830D02*
X172588421Y-101391115D01*
X172588421Y-101391115D02*
X172512231Y-101467306D01*
X172512231Y-101467306D02*
X172436040Y-101505401D01*
X173655088Y-102076830D02*
X173197945Y-102076830D01*
X173426517Y-102076830D02*
X173426517Y-101276830D01*
X173426517Y-101276830D02*
X173350326Y-101391115D01*
X173350326Y-101391115D02*
X173274136Y-101467306D01*
X173274136Y-101467306D02*
X173197945Y-101505401D01*
X149957314Y-83649895D02*
X149690647Y-83268942D01*
X149500171Y-83649895D02*
X149500171Y-82849895D01*
X149500171Y-82849895D02*
X149804933Y-82849895D01*
X149804933Y-82849895D02*
X149881123Y-82887990D01*
X149881123Y-82887990D02*
X149919218Y-82926085D01*
X149919218Y-82926085D02*
X149957314Y-83002276D01*
X149957314Y-83002276D02*
X149957314Y-83116561D01*
X149957314Y-83116561D02*
X149919218Y-83192752D01*
X149919218Y-83192752D02*
X149881123Y-83230847D01*
X149881123Y-83230847D02*
X149804933Y-83268942D01*
X149804933Y-83268942D02*
X149500171Y-83268942D01*
X150262075Y-82926085D02*
X150300171Y-82887990D01*
X150300171Y-82887990D02*
X150376361Y-82849895D01*
X150376361Y-82849895D02*
X150566837Y-82849895D01*
X150566837Y-82849895D02*
X150643028Y-82887990D01*
X150643028Y-82887990D02*
X150681123Y-82926085D01*
X150681123Y-82926085D02*
X150719218Y-83002276D01*
X150719218Y-83002276D02*
X150719218Y-83078466D01*
X150719218Y-83078466D02*
X150681123Y-83192752D01*
X150681123Y-83192752D02*
X150223980Y-83649895D01*
X150223980Y-83649895D02*
X150719218Y-83649895D01*
X150985885Y-82849895D02*
X151481123Y-82849895D01*
X151481123Y-82849895D02*
X151214457Y-83154657D01*
X151214457Y-83154657D02*
X151328742Y-83154657D01*
X151328742Y-83154657D02*
X151404933Y-83192752D01*
X151404933Y-83192752D02*
X151443028Y-83230847D01*
X151443028Y-83230847D02*
X151481123Y-83307038D01*
X151481123Y-83307038D02*
X151481123Y-83497514D01*
X151481123Y-83497514D02*
X151443028Y-83573704D01*
X151443028Y-83573704D02*
X151404933Y-83611800D01*
X151404933Y-83611800D02*
X151328742Y-83649895D01*
X151328742Y-83649895D02*
X151100171Y-83649895D01*
X151100171Y-83649895D02*
X151023980Y-83611800D01*
X151023980Y-83611800D02*
X150985885Y-83573704D01*
X150588267Y-121899895D02*
X150321600Y-121518942D01*
X150131124Y-121899895D02*
X150131124Y-121099895D01*
X150131124Y-121099895D02*
X150435886Y-121099895D01*
X150435886Y-121099895D02*
X150512076Y-121137990D01*
X150512076Y-121137990D02*
X150550171Y-121176085D01*
X150550171Y-121176085D02*
X150588267Y-121252276D01*
X150588267Y-121252276D02*
X150588267Y-121366561D01*
X150588267Y-121366561D02*
X150550171Y-121442752D01*
X150550171Y-121442752D02*
X150512076Y-121480847D01*
X150512076Y-121480847D02*
X150435886Y-121518942D01*
X150435886Y-121518942D02*
X150131124Y-121518942D01*
X151045409Y-121442752D02*
X150969219Y-121404657D01*
X150969219Y-121404657D02*
X150931124Y-121366561D01*
X150931124Y-121366561D02*
X150893028Y-121290371D01*
X150893028Y-121290371D02*
X150893028Y-121252276D01*
X150893028Y-121252276D02*
X150931124Y-121176085D01*
X150931124Y-121176085D02*
X150969219Y-121137990D01*
X150969219Y-121137990D02*
X151045409Y-121099895D01*
X151045409Y-121099895D02*
X151197790Y-121099895D01*
X151197790Y-121099895D02*
X151273981Y-121137990D01*
X151273981Y-121137990D02*
X151312076Y-121176085D01*
X151312076Y-121176085D02*
X151350171Y-121252276D01*
X151350171Y-121252276D02*
X151350171Y-121290371D01*
X151350171Y-121290371D02*
X151312076Y-121366561D01*
X151312076Y-121366561D02*
X151273981Y-121404657D01*
X151273981Y-121404657D02*
X151197790Y-121442752D01*
X151197790Y-121442752D02*
X151045409Y-121442752D01*
X151045409Y-121442752D02*
X150969219Y-121480847D01*
X150969219Y-121480847D02*
X150931124Y-121518942D01*
X150931124Y-121518942D02*
X150893028Y-121595133D01*
X150893028Y-121595133D02*
X150893028Y-121747514D01*
X150893028Y-121747514D02*
X150931124Y-121823704D01*
X150931124Y-121823704D02*
X150969219Y-121861800D01*
X150969219Y-121861800D02*
X151045409Y-121899895D01*
X151045409Y-121899895D02*
X151197790Y-121899895D01*
X151197790Y-121899895D02*
X151273981Y-121861800D01*
X151273981Y-121861800D02*
X151312076Y-121823704D01*
X151312076Y-121823704D02*
X151350171Y-121747514D01*
X151350171Y-121747514D02*
X151350171Y-121595133D01*
X151350171Y-121595133D02*
X151312076Y-121518942D01*
X151312076Y-121518942D02*
X151273981Y-121480847D01*
X151273981Y-121480847D02*
X151197790Y-121442752D01*
X150588267Y-117899895D02*
X150321600Y-117518942D01*
X150131124Y-117899895D02*
X150131124Y-117099895D01*
X150131124Y-117099895D02*
X150435886Y-117099895D01*
X150435886Y-117099895D02*
X150512076Y-117137990D01*
X150512076Y-117137990D02*
X150550171Y-117176085D01*
X150550171Y-117176085D02*
X150588267Y-117252276D01*
X150588267Y-117252276D02*
X150588267Y-117366561D01*
X150588267Y-117366561D02*
X150550171Y-117442752D01*
X150550171Y-117442752D02*
X150512076Y-117480847D01*
X150512076Y-117480847D02*
X150435886Y-117518942D01*
X150435886Y-117518942D02*
X150131124Y-117518942D01*
X151273981Y-117099895D02*
X151121600Y-117099895D01*
X151121600Y-117099895D02*
X151045409Y-117137990D01*
X151045409Y-117137990D02*
X151007314Y-117176085D01*
X151007314Y-117176085D02*
X150931124Y-117290371D01*
X150931124Y-117290371D02*
X150893028Y-117442752D01*
X150893028Y-117442752D02*
X150893028Y-117747514D01*
X150893028Y-117747514D02*
X150931124Y-117823704D01*
X150931124Y-117823704D02*
X150969219Y-117861800D01*
X150969219Y-117861800D02*
X151045409Y-117899895D01*
X151045409Y-117899895D02*
X151197790Y-117899895D01*
X151197790Y-117899895D02*
X151273981Y-117861800D01*
X151273981Y-117861800D02*
X151312076Y-117823704D01*
X151312076Y-117823704D02*
X151350171Y-117747514D01*
X151350171Y-117747514D02*
X151350171Y-117557038D01*
X151350171Y-117557038D02*
X151312076Y-117480847D01*
X151312076Y-117480847D02*
X151273981Y-117442752D01*
X151273981Y-117442752D02*
X151197790Y-117404657D01*
X151197790Y-117404657D02*
X151045409Y-117404657D01*
X151045409Y-117404657D02*
X150969219Y-117442752D01*
X150969219Y-117442752D02*
X150931124Y-117480847D01*
X150931124Y-117480847D02*
X150893028Y-117557038D01*
X149957314Y-89649895D02*
X149690647Y-89268942D01*
X149500171Y-89649895D02*
X149500171Y-88849895D01*
X149500171Y-88849895D02*
X149804933Y-88849895D01*
X149804933Y-88849895D02*
X149881123Y-88887990D01*
X149881123Y-88887990D02*
X149919218Y-88926085D01*
X149919218Y-88926085D02*
X149957314Y-89002276D01*
X149957314Y-89002276D02*
X149957314Y-89116561D01*
X149957314Y-89116561D02*
X149919218Y-89192752D01*
X149919218Y-89192752D02*
X149881123Y-89230847D01*
X149881123Y-89230847D02*
X149804933Y-89268942D01*
X149804933Y-89268942D02*
X149500171Y-89268942D01*
X150262075Y-88926085D02*
X150300171Y-88887990D01*
X150300171Y-88887990D02*
X150376361Y-88849895D01*
X150376361Y-88849895D02*
X150566837Y-88849895D01*
X150566837Y-88849895D02*
X150643028Y-88887990D01*
X150643028Y-88887990D02*
X150681123Y-88926085D01*
X150681123Y-88926085D02*
X150719218Y-89002276D01*
X150719218Y-89002276D02*
X150719218Y-89078466D01*
X150719218Y-89078466D02*
X150681123Y-89192752D01*
X150681123Y-89192752D02*
X150223980Y-89649895D01*
X150223980Y-89649895D02*
X150719218Y-89649895D01*
X151404933Y-88849895D02*
X151252552Y-88849895D01*
X151252552Y-88849895D02*
X151176361Y-88887990D01*
X151176361Y-88887990D02*
X151138266Y-88926085D01*
X151138266Y-88926085D02*
X151062076Y-89040371D01*
X151062076Y-89040371D02*
X151023980Y-89192752D01*
X151023980Y-89192752D02*
X151023980Y-89497514D01*
X151023980Y-89497514D02*
X151062076Y-89573704D01*
X151062076Y-89573704D02*
X151100171Y-89611800D01*
X151100171Y-89611800D02*
X151176361Y-89649895D01*
X151176361Y-89649895D02*
X151328742Y-89649895D01*
X151328742Y-89649895D02*
X151404933Y-89611800D01*
X151404933Y-89611800D02*
X151443028Y-89573704D01*
X151443028Y-89573704D02*
X151481123Y-89497514D01*
X151481123Y-89497514D02*
X151481123Y-89307038D01*
X151481123Y-89307038D02*
X151443028Y-89230847D01*
X151443028Y-89230847D02*
X151404933Y-89192752D01*
X151404933Y-89192752D02*
X151328742Y-89154657D01*
X151328742Y-89154657D02*
X151176361Y-89154657D01*
X151176361Y-89154657D02*
X151100171Y-89192752D01*
X151100171Y-89192752D02*
X151062076Y-89230847D01*
X151062076Y-89230847D02*
X151023980Y-89307038D01*
X166338267Y-81893704D02*
X166300171Y-81931800D01*
X166300171Y-81931800D02*
X166185886Y-81969895D01*
X166185886Y-81969895D02*
X166109695Y-81969895D01*
X166109695Y-81969895D02*
X165995409Y-81931800D01*
X165995409Y-81931800D02*
X165919219Y-81855609D01*
X165919219Y-81855609D02*
X165881124Y-81779419D01*
X165881124Y-81779419D02*
X165843028Y-81627038D01*
X165843028Y-81627038D02*
X165843028Y-81512752D01*
X165843028Y-81512752D02*
X165881124Y-81360371D01*
X165881124Y-81360371D02*
X165919219Y-81284180D01*
X165919219Y-81284180D02*
X165995409Y-81207990D01*
X165995409Y-81207990D02*
X166109695Y-81169895D01*
X166109695Y-81169895D02*
X166185886Y-81169895D01*
X166185886Y-81169895D02*
X166300171Y-81207990D01*
X166300171Y-81207990D02*
X166338267Y-81246085D01*
X167062076Y-81169895D02*
X166681124Y-81169895D01*
X166681124Y-81169895D02*
X166643028Y-81550847D01*
X166643028Y-81550847D02*
X166681124Y-81512752D01*
X166681124Y-81512752D02*
X166757314Y-81474657D01*
X166757314Y-81474657D02*
X166947790Y-81474657D01*
X166947790Y-81474657D02*
X167023981Y-81512752D01*
X167023981Y-81512752D02*
X167062076Y-81550847D01*
X167062076Y-81550847D02*
X167100171Y-81627038D01*
X167100171Y-81627038D02*
X167100171Y-81817514D01*
X167100171Y-81817514D02*
X167062076Y-81893704D01*
X167062076Y-81893704D02*
X167023981Y-81931800D01*
X167023981Y-81931800D02*
X166947790Y-81969895D01*
X166947790Y-81969895D02*
X166757314Y-81969895D01*
X166757314Y-81969895D02*
X166681124Y-81931800D01*
X166681124Y-81931800D02*
X166643028Y-81893704D01*
X149957314Y-85649895D02*
X149690647Y-85268942D01*
X149500171Y-85649895D02*
X149500171Y-84849895D01*
X149500171Y-84849895D02*
X149804933Y-84849895D01*
X149804933Y-84849895D02*
X149881123Y-84887990D01*
X149881123Y-84887990D02*
X149919218Y-84926085D01*
X149919218Y-84926085D02*
X149957314Y-85002276D01*
X149957314Y-85002276D02*
X149957314Y-85116561D01*
X149957314Y-85116561D02*
X149919218Y-85192752D01*
X149919218Y-85192752D02*
X149881123Y-85230847D01*
X149881123Y-85230847D02*
X149804933Y-85268942D01*
X149804933Y-85268942D02*
X149500171Y-85268942D01*
X150262075Y-84926085D02*
X150300171Y-84887990D01*
X150300171Y-84887990D02*
X150376361Y-84849895D01*
X150376361Y-84849895D02*
X150566837Y-84849895D01*
X150566837Y-84849895D02*
X150643028Y-84887990D01*
X150643028Y-84887990D02*
X150681123Y-84926085D01*
X150681123Y-84926085D02*
X150719218Y-85002276D01*
X150719218Y-85002276D02*
X150719218Y-85078466D01*
X150719218Y-85078466D02*
X150681123Y-85192752D01*
X150681123Y-85192752D02*
X150223980Y-85649895D01*
X150223980Y-85649895D02*
X150719218Y-85649895D01*
X151404933Y-85116561D02*
X151404933Y-85649895D01*
X151214457Y-84811800D02*
X151023980Y-85383228D01*
X151023980Y-85383228D02*
X151519219Y-85383228D01*
X149957314Y-103649895D02*
X149690647Y-103268942D01*
X149500171Y-103649895D02*
X149500171Y-102849895D01*
X149500171Y-102849895D02*
X149804933Y-102849895D01*
X149804933Y-102849895D02*
X149881123Y-102887990D01*
X149881123Y-102887990D02*
X149919218Y-102926085D01*
X149919218Y-102926085D02*
X149957314Y-103002276D01*
X149957314Y-103002276D02*
X149957314Y-103116561D01*
X149957314Y-103116561D02*
X149919218Y-103192752D01*
X149919218Y-103192752D02*
X149881123Y-103230847D01*
X149881123Y-103230847D02*
X149804933Y-103268942D01*
X149804933Y-103268942D02*
X149500171Y-103268942D01*
X150719218Y-103649895D02*
X150262075Y-103649895D01*
X150490647Y-103649895D02*
X150490647Y-102849895D01*
X150490647Y-102849895D02*
X150414456Y-102964180D01*
X150414456Y-102964180D02*
X150338266Y-103040371D01*
X150338266Y-103040371D02*
X150262075Y-103078466D01*
X151443028Y-102849895D02*
X151062076Y-102849895D01*
X151062076Y-102849895D02*
X151023980Y-103230847D01*
X151023980Y-103230847D02*
X151062076Y-103192752D01*
X151062076Y-103192752D02*
X151138266Y-103154657D01*
X151138266Y-103154657D02*
X151328742Y-103154657D01*
X151328742Y-103154657D02*
X151404933Y-103192752D01*
X151404933Y-103192752D02*
X151443028Y-103230847D01*
X151443028Y-103230847D02*
X151481123Y-103307038D01*
X151481123Y-103307038D02*
X151481123Y-103497514D01*
X151481123Y-103497514D02*
X151443028Y-103573704D01*
X151443028Y-103573704D02*
X151404933Y-103611800D01*
X151404933Y-103611800D02*
X151328742Y-103649895D01*
X151328742Y-103649895D02*
X151138266Y-103649895D01*
X151138266Y-103649895D02*
X151062076Y-103611800D01*
X151062076Y-103611800D02*
X151023980Y-103573704D01*
X149957314Y-93649895D02*
X149690647Y-93268942D01*
X149500171Y-93649895D02*
X149500171Y-92849895D01*
X149500171Y-92849895D02*
X149804933Y-92849895D01*
X149804933Y-92849895D02*
X149881123Y-92887990D01*
X149881123Y-92887990D02*
X149919218Y-92926085D01*
X149919218Y-92926085D02*
X149957314Y-93002276D01*
X149957314Y-93002276D02*
X149957314Y-93116561D01*
X149957314Y-93116561D02*
X149919218Y-93192752D01*
X149919218Y-93192752D02*
X149881123Y-93230847D01*
X149881123Y-93230847D02*
X149804933Y-93268942D01*
X149804933Y-93268942D02*
X149500171Y-93268942D01*
X150262075Y-92926085D02*
X150300171Y-92887990D01*
X150300171Y-92887990D02*
X150376361Y-92849895D01*
X150376361Y-92849895D02*
X150566837Y-92849895D01*
X150566837Y-92849895D02*
X150643028Y-92887990D01*
X150643028Y-92887990D02*
X150681123Y-92926085D01*
X150681123Y-92926085D02*
X150719218Y-93002276D01*
X150719218Y-93002276D02*
X150719218Y-93078466D01*
X150719218Y-93078466D02*
X150681123Y-93192752D01*
X150681123Y-93192752D02*
X150223980Y-93649895D01*
X150223980Y-93649895D02*
X150719218Y-93649895D01*
X151176361Y-93192752D02*
X151100171Y-93154657D01*
X151100171Y-93154657D02*
X151062076Y-93116561D01*
X151062076Y-93116561D02*
X151023980Y-93040371D01*
X151023980Y-93040371D02*
X151023980Y-93002276D01*
X151023980Y-93002276D02*
X151062076Y-92926085D01*
X151062076Y-92926085D02*
X151100171Y-92887990D01*
X151100171Y-92887990D02*
X151176361Y-92849895D01*
X151176361Y-92849895D02*
X151328742Y-92849895D01*
X151328742Y-92849895D02*
X151404933Y-92887990D01*
X151404933Y-92887990D02*
X151443028Y-92926085D01*
X151443028Y-92926085D02*
X151481123Y-93002276D01*
X151481123Y-93002276D02*
X151481123Y-93040371D01*
X151481123Y-93040371D02*
X151443028Y-93116561D01*
X151443028Y-93116561D02*
X151404933Y-93154657D01*
X151404933Y-93154657D02*
X151328742Y-93192752D01*
X151328742Y-93192752D02*
X151176361Y-93192752D01*
X151176361Y-93192752D02*
X151100171Y-93230847D01*
X151100171Y-93230847D02*
X151062076Y-93268942D01*
X151062076Y-93268942D02*
X151023980Y-93345133D01*
X151023980Y-93345133D02*
X151023980Y-93497514D01*
X151023980Y-93497514D02*
X151062076Y-93573704D01*
X151062076Y-93573704D02*
X151100171Y-93611800D01*
X151100171Y-93611800D02*
X151176361Y-93649895D01*
X151176361Y-93649895D02*
X151328742Y-93649895D01*
X151328742Y-93649895D02*
X151404933Y-93611800D01*
X151404933Y-93611800D02*
X151443028Y-93573704D01*
X151443028Y-93573704D02*
X151481123Y-93497514D01*
X151481123Y-93497514D02*
X151481123Y-93345133D01*
X151481123Y-93345133D02*
X151443028Y-93268942D01*
X151443028Y-93268942D02*
X151404933Y-93230847D01*
X151404933Y-93230847D02*
X151328742Y-93192752D01*
X159862076Y-96674895D02*
X159862076Y-97322514D01*
X159862076Y-97322514D02*
X159900171Y-97398704D01*
X159900171Y-97398704D02*
X159938266Y-97436800D01*
X159938266Y-97436800D02*
X160014457Y-97474895D01*
X160014457Y-97474895D02*
X160166838Y-97474895D01*
X160166838Y-97474895D02*
X160243028Y-97436800D01*
X160243028Y-97436800D02*
X160281123Y-97398704D01*
X160281123Y-97398704D02*
X160319219Y-97322514D01*
X160319219Y-97322514D02*
X160319219Y-96674895D01*
X160623980Y-96674895D02*
X161119218Y-96674895D01*
X161119218Y-96674895D02*
X160852552Y-96979657D01*
X160852552Y-96979657D02*
X160966837Y-96979657D01*
X160966837Y-96979657D02*
X161043028Y-97017752D01*
X161043028Y-97017752D02*
X161081123Y-97055847D01*
X161081123Y-97055847D02*
X161119218Y-97132038D01*
X161119218Y-97132038D02*
X161119218Y-97322514D01*
X161119218Y-97322514D02*
X161081123Y-97398704D01*
X161081123Y-97398704D02*
X161043028Y-97436800D01*
X161043028Y-97436800D02*
X160966837Y-97474895D01*
X160966837Y-97474895D02*
X160738266Y-97474895D01*
X160738266Y-97474895D02*
X160662075Y-97436800D01*
X160662075Y-97436800D02*
X160623980Y-97398704D01*
X166338267Y-113573704D02*
X166300171Y-113611800D01*
X166300171Y-113611800D02*
X166185886Y-113649895D01*
X166185886Y-113649895D02*
X166109695Y-113649895D01*
X166109695Y-113649895D02*
X165995409Y-113611800D01*
X165995409Y-113611800D02*
X165919219Y-113535609D01*
X165919219Y-113535609D02*
X165881124Y-113459419D01*
X165881124Y-113459419D02*
X165843028Y-113307038D01*
X165843028Y-113307038D02*
X165843028Y-113192752D01*
X165843028Y-113192752D02*
X165881124Y-113040371D01*
X165881124Y-113040371D02*
X165919219Y-112964180D01*
X165919219Y-112964180D02*
X165995409Y-112887990D01*
X165995409Y-112887990D02*
X166109695Y-112849895D01*
X166109695Y-112849895D02*
X166185886Y-112849895D01*
X166185886Y-112849895D02*
X166300171Y-112887990D01*
X166300171Y-112887990D02*
X166338267Y-112926085D01*
X166643028Y-112926085D02*
X166681124Y-112887990D01*
X166681124Y-112887990D02*
X166757314Y-112849895D01*
X166757314Y-112849895D02*
X166947790Y-112849895D01*
X166947790Y-112849895D02*
X167023981Y-112887990D01*
X167023981Y-112887990D02*
X167062076Y-112926085D01*
X167062076Y-112926085D02*
X167100171Y-113002276D01*
X167100171Y-113002276D02*
X167100171Y-113078466D01*
X167100171Y-113078466D02*
X167062076Y-113192752D01*
X167062076Y-113192752D02*
X166604933Y-113649895D01*
X166604933Y-113649895D02*
X167100171Y-113649895D01*
X149957314Y-87649895D02*
X149690647Y-87268942D01*
X149500171Y-87649895D02*
X149500171Y-86849895D01*
X149500171Y-86849895D02*
X149804933Y-86849895D01*
X149804933Y-86849895D02*
X149881123Y-86887990D01*
X149881123Y-86887990D02*
X149919218Y-86926085D01*
X149919218Y-86926085D02*
X149957314Y-87002276D01*
X149957314Y-87002276D02*
X149957314Y-87116561D01*
X149957314Y-87116561D02*
X149919218Y-87192752D01*
X149919218Y-87192752D02*
X149881123Y-87230847D01*
X149881123Y-87230847D02*
X149804933Y-87268942D01*
X149804933Y-87268942D02*
X149500171Y-87268942D01*
X150262075Y-86926085D02*
X150300171Y-86887990D01*
X150300171Y-86887990D02*
X150376361Y-86849895D01*
X150376361Y-86849895D02*
X150566837Y-86849895D01*
X150566837Y-86849895D02*
X150643028Y-86887990D01*
X150643028Y-86887990D02*
X150681123Y-86926085D01*
X150681123Y-86926085D02*
X150719218Y-87002276D01*
X150719218Y-87002276D02*
X150719218Y-87078466D01*
X150719218Y-87078466D02*
X150681123Y-87192752D01*
X150681123Y-87192752D02*
X150223980Y-87649895D01*
X150223980Y-87649895D02*
X150719218Y-87649895D01*
X151443028Y-86849895D02*
X151062076Y-86849895D01*
X151062076Y-86849895D02*
X151023980Y-87230847D01*
X151023980Y-87230847D02*
X151062076Y-87192752D01*
X151062076Y-87192752D02*
X151138266Y-87154657D01*
X151138266Y-87154657D02*
X151328742Y-87154657D01*
X151328742Y-87154657D02*
X151404933Y-87192752D01*
X151404933Y-87192752D02*
X151443028Y-87230847D01*
X151443028Y-87230847D02*
X151481123Y-87307038D01*
X151481123Y-87307038D02*
X151481123Y-87497514D01*
X151481123Y-87497514D02*
X151443028Y-87573704D01*
X151443028Y-87573704D02*
X151404933Y-87611800D01*
X151404933Y-87611800D02*
X151328742Y-87649895D01*
X151328742Y-87649895D02*
X151138266Y-87649895D01*
X151138266Y-87649895D02*
X151062076Y-87611800D01*
X151062076Y-87611800D02*
X151023980Y-87573704D01*
X156833895Y-128920932D02*
X156452942Y-129187599D01*
X156833895Y-129378075D02*
X156033895Y-129378075D01*
X156033895Y-129378075D02*
X156033895Y-129073313D01*
X156033895Y-129073313D02*
X156071990Y-128997123D01*
X156071990Y-128997123D02*
X156110085Y-128959028D01*
X156110085Y-128959028D02*
X156186276Y-128920932D01*
X156186276Y-128920932D02*
X156300561Y-128920932D01*
X156300561Y-128920932D02*
X156376752Y-128959028D01*
X156376752Y-128959028D02*
X156414847Y-128997123D01*
X156414847Y-128997123D02*
X156452942Y-129073313D01*
X156452942Y-129073313D02*
X156452942Y-129378075D01*
X156833895Y-128159028D02*
X156833895Y-128616171D01*
X156833895Y-128387599D02*
X156033895Y-128387599D01*
X156033895Y-128387599D02*
X156148180Y-128463790D01*
X156148180Y-128463790D02*
X156224371Y-128539980D01*
X156224371Y-128539980D02*
X156262466Y-128616171D01*
X149957314Y-99649895D02*
X149690647Y-99268942D01*
X149500171Y-99649895D02*
X149500171Y-98849895D01*
X149500171Y-98849895D02*
X149804933Y-98849895D01*
X149804933Y-98849895D02*
X149881123Y-98887990D01*
X149881123Y-98887990D02*
X149919218Y-98926085D01*
X149919218Y-98926085D02*
X149957314Y-99002276D01*
X149957314Y-99002276D02*
X149957314Y-99116561D01*
X149957314Y-99116561D02*
X149919218Y-99192752D01*
X149919218Y-99192752D02*
X149881123Y-99230847D01*
X149881123Y-99230847D02*
X149804933Y-99268942D01*
X149804933Y-99268942D02*
X149500171Y-99268942D01*
X150719218Y-99649895D02*
X150262075Y-99649895D01*
X150490647Y-99649895D02*
X150490647Y-98849895D01*
X150490647Y-98849895D02*
X150414456Y-98964180D01*
X150414456Y-98964180D02*
X150338266Y-99040371D01*
X150338266Y-99040371D02*
X150262075Y-99078466D01*
X150985885Y-98849895D02*
X151481123Y-98849895D01*
X151481123Y-98849895D02*
X151214457Y-99154657D01*
X151214457Y-99154657D02*
X151328742Y-99154657D01*
X151328742Y-99154657D02*
X151404933Y-99192752D01*
X151404933Y-99192752D02*
X151443028Y-99230847D01*
X151443028Y-99230847D02*
X151481123Y-99307038D01*
X151481123Y-99307038D02*
X151481123Y-99497514D01*
X151481123Y-99497514D02*
X151443028Y-99573704D01*
X151443028Y-99573704D02*
X151404933Y-99611800D01*
X151404933Y-99611800D02*
X151328742Y-99649895D01*
X151328742Y-99649895D02*
X151100171Y-99649895D01*
X151100171Y-99649895D02*
X151023980Y-99611800D01*
X151023980Y-99611800D02*
X150985885Y-99573704D01*
X149957314Y-105649895D02*
X149690647Y-105268942D01*
X149500171Y-105649895D02*
X149500171Y-104849895D01*
X149500171Y-104849895D02*
X149804933Y-104849895D01*
X149804933Y-104849895D02*
X149881123Y-104887990D01*
X149881123Y-104887990D02*
X149919218Y-104926085D01*
X149919218Y-104926085D02*
X149957314Y-105002276D01*
X149957314Y-105002276D02*
X149957314Y-105116561D01*
X149957314Y-105116561D02*
X149919218Y-105192752D01*
X149919218Y-105192752D02*
X149881123Y-105230847D01*
X149881123Y-105230847D02*
X149804933Y-105268942D01*
X149804933Y-105268942D02*
X149500171Y-105268942D01*
X150719218Y-105649895D02*
X150262075Y-105649895D01*
X150490647Y-105649895D02*
X150490647Y-104849895D01*
X150490647Y-104849895D02*
X150414456Y-104964180D01*
X150414456Y-104964180D02*
X150338266Y-105040371D01*
X150338266Y-105040371D02*
X150262075Y-105078466D01*
X151404933Y-104849895D02*
X151252552Y-104849895D01*
X151252552Y-104849895D02*
X151176361Y-104887990D01*
X151176361Y-104887990D02*
X151138266Y-104926085D01*
X151138266Y-104926085D02*
X151062076Y-105040371D01*
X151062076Y-105040371D02*
X151023980Y-105192752D01*
X151023980Y-105192752D02*
X151023980Y-105497514D01*
X151023980Y-105497514D02*
X151062076Y-105573704D01*
X151062076Y-105573704D02*
X151100171Y-105611800D01*
X151100171Y-105611800D02*
X151176361Y-105649895D01*
X151176361Y-105649895D02*
X151328742Y-105649895D01*
X151328742Y-105649895D02*
X151404933Y-105611800D01*
X151404933Y-105611800D02*
X151443028Y-105573704D01*
X151443028Y-105573704D02*
X151481123Y-105497514D01*
X151481123Y-105497514D02*
X151481123Y-105307038D01*
X151481123Y-105307038D02*
X151443028Y-105230847D01*
X151443028Y-105230847D02*
X151404933Y-105192752D01*
X151404933Y-105192752D02*
X151328742Y-105154657D01*
X151328742Y-105154657D02*
X151176361Y-105154657D01*
X151176361Y-105154657D02*
X151100171Y-105192752D01*
X151100171Y-105192752D02*
X151062076Y-105230847D01*
X151062076Y-105230847D02*
X151023980Y-105307038D01*
X149957314Y-107899895D02*
X149690647Y-107518942D01*
X149500171Y-107899895D02*
X149500171Y-107099895D01*
X149500171Y-107099895D02*
X149804933Y-107099895D01*
X149804933Y-107099895D02*
X149881123Y-107137990D01*
X149881123Y-107137990D02*
X149919218Y-107176085D01*
X149919218Y-107176085D02*
X149957314Y-107252276D01*
X149957314Y-107252276D02*
X149957314Y-107366561D01*
X149957314Y-107366561D02*
X149919218Y-107442752D01*
X149919218Y-107442752D02*
X149881123Y-107480847D01*
X149881123Y-107480847D02*
X149804933Y-107518942D01*
X149804933Y-107518942D02*
X149500171Y-107518942D01*
X150719218Y-107899895D02*
X150262075Y-107899895D01*
X150490647Y-107899895D02*
X150490647Y-107099895D01*
X150490647Y-107099895D02*
X150414456Y-107214180D01*
X150414456Y-107214180D02*
X150338266Y-107290371D01*
X150338266Y-107290371D02*
X150262075Y-107328466D01*
X150985885Y-107099895D02*
X151519219Y-107099895D01*
X151519219Y-107099895D02*
X151176361Y-107899895D01*
X149707314Y-125899895D02*
X149440647Y-125518942D01*
X149250171Y-125899895D02*
X149250171Y-125099895D01*
X149250171Y-125099895D02*
X149554933Y-125099895D01*
X149554933Y-125099895D02*
X149631123Y-125137990D01*
X149631123Y-125137990D02*
X149669218Y-125176085D01*
X149669218Y-125176085D02*
X149707314Y-125252276D01*
X149707314Y-125252276D02*
X149707314Y-125366561D01*
X149707314Y-125366561D02*
X149669218Y-125442752D01*
X149669218Y-125442752D02*
X149631123Y-125480847D01*
X149631123Y-125480847D02*
X149554933Y-125518942D01*
X149554933Y-125518942D02*
X149250171Y-125518942D01*
X150469218Y-125899895D02*
X150012075Y-125899895D01*
X150240647Y-125899895D02*
X150240647Y-125099895D01*
X150240647Y-125099895D02*
X150164456Y-125214180D01*
X150164456Y-125214180D02*
X150088266Y-125290371D01*
X150088266Y-125290371D02*
X150012075Y-125328466D01*
X150964457Y-125099895D02*
X151040647Y-125099895D01*
X151040647Y-125099895D02*
X151116838Y-125137990D01*
X151116838Y-125137990D02*
X151154933Y-125176085D01*
X151154933Y-125176085D02*
X151193028Y-125252276D01*
X151193028Y-125252276D02*
X151231123Y-125404657D01*
X151231123Y-125404657D02*
X151231123Y-125595133D01*
X151231123Y-125595133D02*
X151193028Y-125747514D01*
X151193028Y-125747514D02*
X151154933Y-125823704D01*
X151154933Y-125823704D02*
X151116838Y-125861800D01*
X151116838Y-125861800D02*
X151040647Y-125899895D01*
X151040647Y-125899895D02*
X150964457Y-125899895D01*
X150964457Y-125899895D02*
X150888266Y-125861800D01*
X150888266Y-125861800D02*
X150850171Y-125823704D01*
X150850171Y-125823704D02*
X150812076Y-125747514D01*
X150812076Y-125747514D02*
X150773980Y-125595133D01*
X150773980Y-125595133D02*
X150773980Y-125404657D01*
X150773980Y-125404657D02*
X150812076Y-125252276D01*
X150812076Y-125252276D02*
X150850171Y-125176085D01*
X150850171Y-125176085D02*
X150888266Y-125137990D01*
X150888266Y-125137990D02*
X150964457Y-125099895D01*
X150588267Y-120149895D02*
X150321600Y-119768942D01*
X150131124Y-120149895D02*
X150131124Y-119349895D01*
X150131124Y-119349895D02*
X150435886Y-119349895D01*
X150435886Y-119349895D02*
X150512076Y-119387990D01*
X150512076Y-119387990D02*
X150550171Y-119426085D01*
X150550171Y-119426085D02*
X150588267Y-119502276D01*
X150588267Y-119502276D02*
X150588267Y-119616561D01*
X150588267Y-119616561D02*
X150550171Y-119692752D01*
X150550171Y-119692752D02*
X150512076Y-119730847D01*
X150512076Y-119730847D02*
X150435886Y-119768942D01*
X150435886Y-119768942D02*
X150131124Y-119768942D01*
X150854933Y-119349895D02*
X151388267Y-119349895D01*
X151388267Y-119349895D02*
X151045409Y-120149895D01*
D12*
G04 #@! TO.C,BZ1*
X154846600Y-66912600D02*
X154846600Y-67412600D01*
X154846600Y-73312600D02*
X154521600Y-73312600D01*
X154846600Y-75812600D02*
X154846600Y-73312600D01*
X155196600Y-76162600D02*
X154846600Y-75812600D01*
X155396600Y-76162600D02*
X155196600Y-76162600D01*
X155446600Y-66912600D02*
X154846600Y-66912600D01*
X163671600Y-66912600D02*
X164096600Y-66912600D01*
X164096600Y-66912600D02*
X164096600Y-67262600D01*
X164096600Y-75537600D02*
X164096600Y-76162600D01*
X164096600Y-76162600D02*
X163496600Y-76162600D01*
D13*
G04 #@! TO.C,R2*
X152236600Y-129014664D02*
X152236600Y-128560536D01*
X153706600Y-129014664D02*
X153706600Y-128560536D01*
G04 #@! TO.C,R19*
X167675376Y-77799120D02*
X167675376Y-77344992D01*
X169145376Y-77799120D02*
X169145376Y-77344992D01*
G04 #@! TO.C,U2*
X160496600Y-114422600D02*
X158546600Y-114422600D01*
X160496600Y-114422600D02*
X162446600Y-114422600D01*
X160496600Y-124542600D02*
X158546600Y-124542600D01*
X160496600Y-124542600D02*
X162446600Y-124542600D01*
X157796600Y-114477600D02*
X157556600Y-114147600D01*
X158036600Y-114147600D01*
X157796600Y-114477600D01*
G36*
X157796600Y-114477600D02*
G01*
X157556600Y-114147600D01*
X158036600Y-114147600D01*
X157796600Y-114477600D01*
G37*
D12*
G04 #@! TO.C,Q1*
X166546600Y-71974300D02*
X166996600Y-71974300D01*
X166546600Y-72199300D02*
X166546600Y-72324300D01*
X166546600Y-72274300D02*
X166546600Y-71974300D01*
X166546600Y-75274300D02*
X166546600Y-74974300D01*
X166921600Y-75274300D02*
X166546600Y-75274300D01*
X167546600Y-75274300D02*
X167821600Y-75274300D01*
X167721600Y-71974300D02*
X168196600Y-71974300D01*
X167821600Y-75274300D02*
X168196600Y-74999300D01*
X168196600Y-71974300D02*
X168196600Y-72124300D01*
X168196600Y-74999300D02*
X168971600Y-74999300D01*
D13*
G04 #@! TO.C,R5*
X153948664Y-114802600D02*
X153494536Y-114802600D01*
X153948664Y-116272600D02*
X153494536Y-116272600D01*
G04 #@! TO.C,U4*
X160496600Y-82672600D02*
X158546600Y-82672600D01*
X160496600Y-82672600D02*
X162446600Y-82672600D01*
X160496600Y-92792600D02*
X158546600Y-92792600D01*
X160496600Y-92792600D02*
X162446600Y-92792600D01*
X157796600Y-82727600D02*
X157556600Y-82397600D01*
X158036600Y-82397600D01*
X157796600Y-82727600D01*
G36*
X157796600Y-82727600D02*
G01*
X157556600Y-82397600D01*
X158036600Y-82397600D01*
X157796600Y-82727600D01*
G37*
G04 #@! TO.C,R27*
X153948664Y-90552600D02*
X153494536Y-90552600D01*
X153948664Y-92022600D02*
X153494536Y-92022600D01*
G04 #@! TO.C,U1*
X140246600Y-124977600D02*
X138296600Y-124977600D01*
X140246600Y-124977600D02*
X142196600Y-124977600D01*
X140246600Y-130097600D02*
X138296600Y-130097600D01*
X140246600Y-130097600D02*
X142196600Y-130097600D01*
X137546600Y-125072600D02*
X137306600Y-124742600D01*
X137786600Y-124742600D01*
X137546600Y-125072600D01*
G36*
X137546600Y-125072600D02*
G01*
X137306600Y-124742600D01*
X137786600Y-124742600D01*
X137546600Y-125072600D01*
G37*
G04 #@! TO.C,J2*
X129474479Y-123063201D02*
X130804481Y-123063202D01*
X129474480Y-130803202D02*
X132134482Y-130803201D01*
X129474482Y-124393201D02*
X129474479Y-123063201D01*
X129474482Y-125663201D02*
X129474480Y-130803202D01*
X129474482Y-125663201D02*
X132134480Y-125663200D01*
X132134480Y-125663200D02*
X132134482Y-130803201D01*
G04 #@! TO.C,TP4*
X135446600Y-130537600D02*
G75*
G02*
X134046600Y-130537600I-700000J0D01*
G01*
X134046600Y-130537600D02*
G75*
G02*
X135446600Y-130537600I700000J0D01*
G01*
G04 #@! TO.C,C4*
X139960348Y-120552600D02*
X140482852Y-120552600D01*
X139960348Y-122022600D02*
X140482852Y-122022600D01*
G04 #@! TO.C,TP7*
X146196600Y-127037600D02*
G75*
G02*
X144796600Y-127037600I-700000J0D01*
G01*
X144796600Y-127037600D02*
G75*
G02*
X146196600Y-127037600I700000J0D01*
G01*
G04 #@! TO.C,R21*
X168859696Y-87232132D02*
X168859696Y-87686260D01*
X170329696Y-87232132D02*
X170329696Y-87686260D01*
G04 #@! TO.C,C1*
X139960348Y-122707600D02*
X140482852Y-122707600D01*
X139960348Y-124177600D02*
X140482852Y-124177600D01*
G04 #@! TO.C,TP5*
X145946600Y-130537600D02*
G75*
G02*
X144546600Y-130537600I-700000J0D01*
G01*
X144546600Y-130537600D02*
G75*
G02*
X145946600Y-130537600I700000J0D01*
G01*
G04 #@! TO.C,R22*
X153948664Y-80552600D02*
X153494536Y-80552600D01*
X153948664Y-82022600D02*
X153494536Y-82022600D01*
G04 #@! TO.C,R29*
X160244536Y-56802600D02*
X160698664Y-56802600D01*
X160244536Y-58272600D02*
X160698664Y-58272600D01*
G04 #@! TO.C,C3*
X166210348Y-97877600D02*
X166732852Y-97877600D01*
X166210348Y-99347600D02*
X166732852Y-99347600D01*
G04 #@! TO.C,R3*
X169959768Y-122907736D02*
X169959768Y-123361864D01*
X171429768Y-122907736D02*
X171429768Y-123361864D01*
G04 #@! TO.C,R4*
X153948664Y-112802600D02*
X153494536Y-112802600D01*
X153948664Y-114272600D02*
X153494536Y-114272600D01*
G04 #@! TO.C,R9*
X153948664Y-122802600D02*
X153494536Y-122802600D01*
X153948664Y-124272600D02*
X153494536Y-124272600D01*
G04 #@! TO.C,R18*
X153948664Y-108552600D02*
X153494536Y-108552600D01*
X153948664Y-110022600D02*
X153494536Y-110022600D01*
G04 #@! TO.C,R14*
X153948664Y-100552600D02*
X153494536Y-100552600D01*
X153948664Y-102022600D02*
X153494536Y-102022600D01*
G04 #@! TO.C,R12*
X153948664Y-96552600D02*
X153494536Y-96552600D01*
X153948664Y-98022600D02*
X153494536Y-98022600D01*
G04 #@! TO.C,R20*
X166728455Y-68782371D02*
X166728455Y-68328243D01*
X165258455Y-68782371D02*
X165258455Y-68328243D01*
G04 #@! TO.C,R11*
X169168501Y-100979535D02*
X169622629Y-100979535D01*
X169168501Y-102449535D02*
X169622629Y-102449535D01*
G04 #@! TO.C,R23*
X153948664Y-82552600D02*
X153494536Y-82552600D01*
X153948664Y-84022600D02*
X153494536Y-84022600D01*
D14*
G04 #@! TO.C,J1*
X149581600Y-132347600D02*
X149581600Y-132487600D01*
X149581600Y-135487600D02*
X149581600Y-135187600D01*
X150431600Y-132347600D02*
X149581600Y-132347600D01*
X158321600Y-132347600D02*
X157471600Y-132347600D01*
X158321600Y-132487600D02*
X158321600Y-132347600D01*
X158321600Y-135187600D02*
X158321600Y-135487600D01*
X158321600Y-135487600D02*
X149581600Y-135487600D01*
D13*
G04 #@! TO.C,R8*
X153948664Y-120802600D02*
X153494536Y-120802600D01*
X153948664Y-122272600D02*
X153494536Y-122272600D01*
G04 #@! TO.C,TP6*
X135446600Y-128037600D02*
G75*
G02*
X134046600Y-128037600I-700000J0D01*
G01*
X134046600Y-128037600D02*
G75*
G02*
X135446600Y-128037600I700000J0D01*
G01*
G04 #@! TO.C,R6*
X153948664Y-116802600D02*
X153494536Y-116802600D01*
X153948664Y-118272600D02*
X153494536Y-118272600D01*
G04 #@! TO.C,R26*
X153948664Y-88552600D02*
X153494536Y-88552600D01*
X153948664Y-90022600D02*
X153494536Y-90022600D01*
G04 #@! TO.C,C5*
X166210348Y-82552600D02*
X166732852Y-82552600D01*
X166210348Y-84022600D02*
X166732852Y-84022600D01*
G04 #@! TO.C,R24*
X153948664Y-84552600D02*
X153494536Y-84552600D01*
X153948664Y-86022600D02*
X153494536Y-86022600D01*
G04 #@! TO.C,R15*
X153948664Y-102552600D02*
X153494536Y-102552600D01*
X153948664Y-104022600D02*
X153494536Y-104022600D01*
G04 #@! TO.C,R28*
X153948664Y-92552600D02*
X153494536Y-92552600D01*
X153948664Y-94022600D02*
X153494536Y-94022600D01*
G04 #@! TO.C,U3*
X160496600Y-98052600D02*
X158546600Y-98052600D01*
X160496600Y-98052600D02*
X162446600Y-98052600D01*
X160496600Y-108172600D02*
X158546600Y-108172600D01*
X160496600Y-108172600D02*
X162446600Y-108172600D01*
X157796600Y-98107600D02*
X157556600Y-97777600D01*
X158036600Y-97777600D01*
X157796600Y-98107600D01*
G36*
X157796600Y-98107600D02*
G01*
X157556600Y-97777600D01*
X158036600Y-97777600D01*
X157796600Y-98107600D01*
G37*
G04 #@! TO.C,C2*
X166210348Y-114302600D02*
X166732852Y-114302600D01*
X166210348Y-115772600D02*
X166732852Y-115772600D01*
G04 #@! TO.C,R25*
X153948664Y-86552600D02*
X153494536Y-86552600D01*
X153948664Y-88022600D02*
X153494536Y-88022600D01*
G04 #@! TO.C,R1*
X154236600Y-129014664D02*
X154236600Y-128560536D01*
X155706600Y-129014664D02*
X155706600Y-128560536D01*
G04 #@! TO.C,R13*
X153948664Y-98552600D02*
X153494536Y-98552600D01*
X153948664Y-100022600D02*
X153494536Y-100022600D01*
G04 #@! TO.C,R16*
X153948664Y-104552600D02*
X153494536Y-104552600D01*
X153948664Y-106022600D02*
X153494536Y-106022600D01*
G04 #@! TO.C,R17*
X153948664Y-106552600D02*
X153494536Y-106552600D01*
X153948664Y-108022600D02*
X153494536Y-108022600D01*
G04 #@! TO.C,R10*
X153948664Y-124802600D02*
X153494536Y-124802600D01*
X153948664Y-126272600D02*
X153494536Y-126272600D01*
G04 #@! TO.C,R7*
X153948664Y-118802600D02*
X153494536Y-118802600D01*
X153948664Y-120272600D02*
X153494536Y-120272600D01*
G04 #@! TD*
%LPC*%
D15*
G04 #@! TO.C,BZ1*
X155121600Y-71537600D03*
X163821600Y-71537600D03*
G04 #@! TD*
D16*
G04 #@! TO.C,R2*
X152971600Y-129787600D03*
X152971600Y-127787600D03*
G04 #@! TD*
G04 #@! TO.C,R19*
X168410376Y-78572056D03*
X168410376Y-76572056D03*
G04 #@! TD*
D17*
G04 #@! TO.C,U2*
X158021600Y-115037600D03*
X158021600Y-116307600D03*
X158021600Y-117577600D03*
X158021600Y-118847600D03*
X158021600Y-120117600D03*
X158021600Y-121387600D03*
X158021600Y-122657600D03*
X158021600Y-123927600D03*
X162971600Y-123927600D03*
X162971600Y-122657600D03*
X162971600Y-121387600D03*
X162971600Y-120117600D03*
X162971600Y-118847600D03*
X162971600Y-117577600D03*
X162971600Y-116307600D03*
X162971600Y-115037600D03*
G04 #@! TD*
D18*
G04 #@! TO.C,Q1*
X168421600Y-74574300D03*
X168421600Y-72674300D03*
X166321600Y-73624300D03*
G04 #@! TD*
D19*
G04 #@! TO.C,R5*
X154721600Y-115537600D03*
X152721600Y-115537600D03*
G04 #@! TD*
D17*
G04 #@! TO.C,U4*
X158021600Y-83287600D03*
X158021600Y-84557600D03*
X158021600Y-85827600D03*
X158021600Y-87097600D03*
X158021600Y-88367600D03*
X158021600Y-89637600D03*
X158021600Y-90907600D03*
X158021600Y-92177600D03*
X162971600Y-92177600D03*
X162971600Y-90907600D03*
X162971600Y-89637600D03*
X162971600Y-88367600D03*
X162971600Y-87097600D03*
X162971600Y-85827600D03*
X162971600Y-84557600D03*
X162971600Y-83287600D03*
G04 #@! TD*
D19*
G04 #@! TO.C,R27*
X154721600Y-91287600D03*
X152721600Y-91287600D03*
G04 #@! TD*
D17*
G04 #@! TO.C,U1*
X137771600Y-125632600D03*
X137771600Y-126902600D03*
X137771600Y-128172600D03*
X137771600Y-129442600D03*
X142721600Y-129442600D03*
X142721600Y-128172600D03*
X142721600Y-126902600D03*
X142721600Y-125632600D03*
G04 #@! TD*
D20*
G04 #@! TO.C,J2*
X130804481Y-124393201D03*
D21*
X130804481Y-126933202D03*
X130804480Y-129473200D03*
G04 #@! TD*
D22*
G04 #@! TO.C,TP4*
X134746600Y-130537600D03*
G04 #@! TD*
D23*
G04 #@! TO.C,C4*
X139184100Y-121287600D03*
X141259100Y-121287600D03*
G04 #@! TD*
D22*
G04 #@! TO.C,TP7*
X145496600Y-127037600D03*
G04 #@! TD*
D24*
G04 #@! TO.C,R21*
X169594696Y-86459196D03*
X169594696Y-88459196D03*
G04 #@! TD*
D23*
G04 #@! TO.C,C1*
X139184100Y-123442600D03*
X141259100Y-123442600D03*
G04 #@! TD*
D22*
G04 #@! TO.C,TP5*
X145246600Y-130537600D03*
G04 #@! TD*
D19*
G04 #@! TO.C,R22*
X154721600Y-81287600D03*
X152721600Y-81287600D03*
G04 #@! TD*
D25*
G04 #@! TO.C,R29*
X159471600Y-57537600D03*
X161471600Y-57537600D03*
G04 #@! TD*
D23*
G04 #@! TO.C,C3*
X165434100Y-98612600D03*
X167509100Y-98612600D03*
G04 #@! TD*
D24*
G04 #@! TO.C,R3*
X170694768Y-122134800D03*
X170694768Y-124134800D03*
G04 #@! TD*
D19*
G04 #@! TO.C,R4*
X154721600Y-113537600D03*
X152721600Y-113537600D03*
G04 #@! TD*
G04 #@! TO.C,R9*
X154721600Y-123537600D03*
X152721600Y-123537600D03*
G04 #@! TD*
G04 #@! TO.C,R18*
X154721600Y-109287600D03*
X152721600Y-109287600D03*
G04 #@! TD*
G04 #@! TO.C,R14*
X154721600Y-101287600D03*
X152721600Y-101287600D03*
G04 #@! TD*
G04 #@! TO.C,R12*
X154721600Y-97287600D03*
X152721600Y-97287600D03*
G04 #@! TD*
D16*
G04 #@! TO.C,R20*
X165993455Y-69555307D03*
X165993455Y-67555307D03*
G04 #@! TD*
D25*
G04 #@! TO.C,R11*
X168395565Y-101714535D03*
X170395565Y-101714535D03*
G04 #@! TD*
D19*
G04 #@! TO.C,R23*
X154721600Y-83287600D03*
X152721600Y-83287600D03*
G04 #@! TD*
D26*
G04 #@! TO.C,J1*
X154451600Y-133037600D03*
D27*
X152431600Y-133037600D03*
D28*
X151201600Y-133037600D03*
D26*
X153451600Y-133037600D03*
D27*
X155471600Y-133037600D03*
D28*
X156701600Y-133037600D03*
D29*
X149681600Y-133837600D03*
X158221600Y-133837600D03*
G04 #@! TD*
D19*
G04 #@! TO.C,R8*
X154721600Y-121537600D03*
X152721600Y-121537600D03*
G04 #@! TD*
D22*
G04 #@! TO.C,TP6*
X134746600Y-128037600D03*
G04 #@! TD*
D19*
G04 #@! TO.C,R6*
X154721600Y-117537600D03*
X152721600Y-117537600D03*
G04 #@! TD*
G04 #@! TO.C,R26*
X154721600Y-89287600D03*
X152721600Y-89287600D03*
G04 #@! TD*
D23*
G04 #@! TO.C,C5*
X165434100Y-83287600D03*
X167509100Y-83287600D03*
G04 #@! TD*
D19*
G04 #@! TO.C,R24*
X154721600Y-85287600D03*
X152721600Y-85287600D03*
G04 #@! TD*
G04 #@! TO.C,R15*
X154721600Y-103287600D03*
X152721600Y-103287600D03*
G04 #@! TD*
G04 #@! TO.C,R28*
X154721600Y-93287600D03*
X152721600Y-93287600D03*
G04 #@! TD*
D17*
G04 #@! TO.C,U3*
X158021600Y-98667600D03*
X158021600Y-99937600D03*
X158021600Y-101207600D03*
X158021600Y-102477600D03*
X158021600Y-103747600D03*
X158021600Y-105017600D03*
X158021600Y-106287600D03*
X158021600Y-107557600D03*
X162971600Y-107557600D03*
X162971600Y-106287600D03*
X162971600Y-105017600D03*
X162971600Y-103747600D03*
X162971600Y-102477600D03*
X162971600Y-101207600D03*
X162971600Y-99937600D03*
X162971600Y-98667600D03*
G04 #@! TD*
D23*
G04 #@! TO.C,C2*
X165434100Y-115037600D03*
X167509100Y-115037600D03*
G04 #@! TD*
D19*
G04 #@! TO.C,R25*
X154721600Y-87287600D03*
X152721600Y-87287600D03*
G04 #@! TD*
D16*
G04 #@! TO.C,R1*
X154971600Y-129787600D03*
X154971600Y-127787600D03*
G04 #@! TD*
D19*
G04 #@! TO.C,R13*
X154721600Y-99287600D03*
X152721600Y-99287600D03*
G04 #@! TD*
G04 #@! TO.C,R16*
X154721600Y-105287600D03*
X152721600Y-105287600D03*
G04 #@! TD*
G04 #@! TO.C,R17*
X154721600Y-107287600D03*
X152721600Y-107287600D03*
G04 #@! TD*
G04 #@! TO.C,R10*
X154721600Y-125537600D03*
X152721600Y-125537600D03*
G04 #@! TD*
G04 #@! TO.C,R7*
X154721600Y-119537600D03*
X152721600Y-119537600D03*
G04 #@! TD*
%LPD*%
M02*
