G04 #@! TF.GenerationSoftware,KiCad,Pcbnew,8.0.7-8.0.7-0~ubuntu24.04.1*
G04 #@! TF.CreationDate,2025-01-03T20:46:55-06:00*
G04 #@! TF.ProjectId,christmas-tree,63687269-7374-46d6-9173-2d747265652e,rev?*
G04 #@! TF.SameCoordinates,Original*
G04 #@! TF.FileFunction,Profile,NP*
%FSLAX46Y46*%
G04 Gerber Fmt 4.6, Leading zero omitted, Abs format (unit mm)*
G04 Created by KiCad (PCBNEW 8.0.7-8.0.7-0~ubuntu24.04.1) date 2025-01-03 20:46:55*
%MOMM*%
%LPD*%
G01*
G04 APERTURE LIST*
G04 #@! TA.AperFunction,Profile*
%ADD10C,0.396874*%
G04 #@! TD*
G04 APERTURE END LIST*
D10*
X159731985Y-47540660D02*
X159989186Y-47549323D01*
X160240167Y-47563562D01*
X160481906Y-47583372D01*
X160711381Y-47608751D01*
X160925569Y-47639693D01*
X161121448Y-47676197D01*
X161295994Y-47718259D01*
X161809586Y-47875727D01*
X162052687Y-47962840D01*
X162286736Y-48055646D01*
X162511791Y-48154223D01*
X162727912Y-48258653D01*
X162935157Y-48369013D01*
X163133584Y-48485385D01*
X163323253Y-48607848D01*
X163504223Y-48736481D01*
X163676552Y-48871364D01*
X163840298Y-49012577D01*
X163995522Y-49160200D01*
X164142280Y-49314311D01*
X164280633Y-49474992D01*
X164410638Y-49642320D01*
X164532356Y-49816377D01*
X164645843Y-49997242D01*
X164751160Y-50184994D01*
X164848364Y-50379714D01*
X164937515Y-50581480D01*
X165018671Y-50790373D01*
X165091891Y-51006471D01*
X165157235Y-51229856D01*
X165214759Y-51460606D01*
X165264524Y-51698802D01*
X165306588Y-51944522D01*
X165341010Y-52197847D01*
X165387162Y-52727629D01*
X165403450Y-53288784D01*
X165397492Y-53820601D01*
X165388178Y-54068322D01*
X165373965Y-54307680D01*
X165354344Y-54541499D01*
X165328809Y-54772602D01*
X165296851Y-55003811D01*
X165257965Y-55237948D01*
X165211642Y-55477836D01*
X165157375Y-55726299D01*
X165094656Y-55986157D01*
X165022979Y-56260235D01*
X164850719Y-56862339D01*
X164636536Y-57555190D01*
X164482149Y-58047200D01*
X164362715Y-58445131D01*
X164273738Y-58771801D01*
X164239267Y-58915544D01*
X164210725Y-59050029D01*
X164187549Y-59178108D01*
X164169180Y-59302633D01*
X164155054Y-59426456D01*
X164144609Y-59552430D01*
X164132518Y-59822239D01*
X164128412Y-60134878D01*
X164128065Y-60459034D01*
X164129781Y-60594552D01*
X164133524Y-60715742D01*
X164139867Y-60825135D01*
X164149384Y-60925265D01*
X164162651Y-61018666D01*
X164180241Y-61107869D01*
X164202729Y-61195409D01*
X164230689Y-61283817D01*
X164264696Y-61375628D01*
X164305324Y-61473374D01*
X164353147Y-61579588D01*
X164408740Y-61696803D01*
X164545532Y-61974369D01*
X164640327Y-62156311D01*
X164745182Y-62341121D01*
X164860804Y-62529643D01*
X164987897Y-62722719D01*
X165127164Y-62921190D01*
X165279312Y-63125900D01*
X165445045Y-63337689D01*
X165625068Y-63557401D01*
X165820084Y-63785877D01*
X166030800Y-64023960D01*
X166257920Y-64272492D01*
X166502148Y-64532315D01*
X166764190Y-64804271D01*
X167044750Y-65089202D01*
X167664242Y-65701360D01*
X168140312Y-66171807D01*
X168599625Y-66638359D01*
X168989863Y-67047111D01*
X169142729Y-67212968D01*
X169258707Y-67344160D01*
X169318231Y-67420362D01*
X169400471Y-67535780D01*
X169627236Y-67874822D01*
X169927283Y-68342405D01*
X170288888Y-68919649D01*
X170700332Y-69587671D01*
X171149893Y-70327591D01*
X171625849Y-71120526D01*
X172116480Y-71947596D01*
X173342761Y-74052898D01*
X173855116Y-74956986D01*
X174319700Y-75797680D01*
X174751077Y-76601719D01*
X175163812Y-77395838D01*
X175572470Y-78206774D01*
X175991615Y-79061264D01*
X176535439Y-80178321D01*
X176979273Y-81074534D01*
X177353561Y-81803944D01*
X177688750Y-82420591D01*
X178015283Y-82978514D01*
X178363605Y-83531754D01*
X178764161Y-84134351D01*
X179247396Y-84840344D01*
X180186578Y-86230801D01*
X180585251Y-86853259D01*
X180943900Y-87445813D01*
X181267966Y-88022421D01*
X181562890Y-88597039D01*
X181834114Y-89183626D01*
X182087078Y-89796138D01*
X182327223Y-90448534D01*
X182559992Y-91154770D01*
X182790824Y-91928803D01*
X183025161Y-92784592D01*
X183268444Y-93736093D01*
X183526114Y-94797264D01*
X184106380Y-97304445D01*
X184404496Y-98569541D01*
X184692317Y-99707337D01*
X184941421Y-100609839D01*
X185042573Y-100939106D01*
X185123388Y-101169052D01*
X185217097Y-101391839D01*
X185358872Y-101709485D01*
X185758665Y-102570139D01*
X186266850Y-103632583D01*
X186827511Y-104778387D01*
X187519403Y-106186167D01*
X188054409Y-107312937D01*
X188270917Y-107794231D01*
X188457610Y-108233218D01*
X188617622Y-108639215D01*
X188754089Y-109021535D01*
X188870147Y-109389495D01*
X188968930Y-109752409D01*
X189053574Y-110119594D01*
X189127214Y-110500364D01*
X189192986Y-110904034D01*
X189254025Y-111339921D01*
X189374445Y-112345604D01*
X189494532Y-113336343D01*
X189554900Y-113763893D01*
X189617739Y-114152780D01*
X189684739Y-114507919D01*
X189757592Y-114834221D01*
X189837987Y-115136602D01*
X189927617Y-115419973D01*
X190028172Y-115689247D01*
X190141342Y-115949339D01*
X190268819Y-116205161D01*
X190412293Y-116461627D01*
X190573455Y-116723649D01*
X190753997Y-116996141D01*
X191179979Y-117592188D01*
X191648852Y-118232161D01*
X191842926Y-118504950D01*
X192014036Y-118754812D01*
X192165140Y-118988149D01*
X192299196Y-119211364D01*
X192419162Y-119430860D01*
X192527997Y-119653039D01*
X192628659Y-119884305D01*
X192724106Y-120131060D01*
X192817295Y-120399708D01*
X192911185Y-120696650D01*
X193008735Y-121028290D01*
X193112902Y-121401030D01*
X193352920Y-122295423D01*
X193769727Y-123835529D01*
X193953204Y-124493735D01*
X194087906Y-124960764D01*
X194145712Y-125174687D01*
X194196399Y-125404308D01*
X194239937Y-125647451D01*
X194276299Y-125901939D01*
X194305454Y-126165594D01*
X194327375Y-126436242D01*
X194342031Y-126711704D01*
X194349394Y-126989805D01*
X194349435Y-127268368D01*
X194342126Y-127545216D01*
X194327436Y-127818173D01*
X194305338Y-128085062D01*
X194275802Y-128343707D01*
X194238799Y-128591931D01*
X194194300Y-128827558D01*
X194142277Y-129048410D01*
X194055313Y-129360053D01*
X193958533Y-129670088D01*
X193852600Y-129977282D01*
X193738174Y-130280403D01*
X193615915Y-130578218D01*
X193486484Y-130869493D01*
X193350543Y-131152996D01*
X193208752Y-131427493D01*
X193061772Y-131691752D01*
X192910265Y-131944540D01*
X192754890Y-132184624D01*
X192596309Y-132410770D01*
X192435182Y-132621746D01*
X192272172Y-132816319D01*
X192107937Y-132993256D01*
X191943140Y-133151323D01*
X191742589Y-133326122D01*
X191538252Y-133492056D01*
X191325756Y-133651192D01*
X191100729Y-133805600D01*
X190858797Y-133957349D01*
X190595586Y-134108507D01*
X190306725Y-134261144D01*
X189987839Y-134417328D01*
X189634556Y-134579128D01*
X189242501Y-134748612D01*
X188807304Y-134927850D01*
X188324589Y-135118911D01*
X187789984Y-135323863D01*
X187199115Y-135544774D01*
X185831097Y-136042753D01*
X183604903Y-136821944D01*
X181629373Y-137470936D01*
X180757372Y-137739738D01*
X179974152Y-137967749D01*
X179288421Y-138152221D01*
X178708883Y-138290407D01*
X178444763Y-138341810D01*
X178157200Y-138386190D01*
X177847622Y-138423552D01*
X177517455Y-138453899D01*
X177168127Y-138477237D01*
X176801066Y-138493568D01*
X176019452Y-138505228D01*
X175184030Y-138488913D01*
X174306221Y-138444655D01*
X173397442Y-138372489D01*
X172469112Y-138272446D01*
X171974880Y-138213989D01*
X171557104Y-138169131D01*
X171203534Y-138137286D01*
X170901919Y-138117867D01*
X170640007Y-138110285D01*
X170405548Y-138113954D01*
X170186289Y-138128286D01*
X169969980Y-138152695D01*
X169712963Y-138193854D01*
X169463609Y-138247508D01*
X169222231Y-138313445D01*
X168989141Y-138391454D01*
X168764651Y-138481323D01*
X168549075Y-138582842D01*
X168342725Y-138695798D01*
X168145914Y-138819981D01*
X167958954Y-138955179D01*
X167782157Y-139101181D01*
X167615838Y-139257775D01*
X167460308Y-139424750D01*
X167315880Y-139601896D01*
X167182866Y-139789000D01*
X167061580Y-139985851D01*
X166952333Y-140192238D01*
X166884585Y-140342225D01*
X166805656Y-140536195D01*
X166718400Y-140766037D01*
X166625668Y-141023640D01*
X166530311Y-141300896D01*
X166435182Y-141589695D01*
X166343132Y-141881926D01*
X166257013Y-142169479D01*
X166172832Y-142452714D01*
X166086331Y-142732565D01*
X165916221Y-143253152D01*
X165837538Y-143479403D01*
X165766386Y-143673304D01*
X165705230Y-143827612D01*
X165656530Y-143935085D01*
X165566207Y-144100598D01*
X165467878Y-144258534D01*
X165361300Y-144409070D01*
X165246231Y-144552382D01*
X165122426Y-144688644D01*
X164989644Y-144818033D01*
X164847642Y-144940724D01*
X164696175Y-145056892D01*
X164535002Y-145166714D01*
X164363879Y-145270365D01*
X164182563Y-145368021D01*
X163990811Y-145459857D01*
X163788380Y-145546048D01*
X163575028Y-145626771D01*
X163350511Y-145702201D01*
X163114586Y-145772514D01*
X162961501Y-145807104D01*
X162762064Y-145839013D01*
X162248877Y-145894073D01*
X161624519Y-145936262D01*
X160938486Y-145964148D01*
X160240271Y-145976301D01*
X159579369Y-145971288D01*
X159005275Y-145947679D01*
X158766247Y-145928453D01*
X158567482Y-145904041D01*
X158567476Y-145904041D01*
X158390367Y-145874803D01*
X158214900Y-145841702D01*
X158041605Y-145804927D01*
X157871014Y-145764665D01*
X157703660Y-145721105D01*
X157540073Y-145674433D01*
X157380786Y-145624838D01*
X157226330Y-145572507D01*
X157077237Y-145517628D01*
X156934039Y-145460389D01*
X156797267Y-145400978D01*
X156667454Y-145339582D01*
X156545129Y-145276388D01*
X156430827Y-145211586D01*
X156325077Y-145145362D01*
X156228413Y-145077904D01*
X156073119Y-144957381D01*
X155999517Y-144895565D01*
X155928401Y-144832284D01*
X155859613Y-144767217D01*
X155792996Y-144700044D01*
X155728393Y-144630443D01*
X155665647Y-144558094D01*
X155604599Y-144482676D01*
X155545092Y-144403868D01*
X155486969Y-144321350D01*
X155430072Y-144234799D01*
X155374245Y-144143896D01*
X155319329Y-144048319D01*
X155265166Y-143947748D01*
X155211600Y-143841862D01*
X155158473Y-143730339D01*
X155105628Y-143612860D01*
X155000152Y-143358746D01*
X154893913Y-143076954D01*
X154785650Y-142764917D01*
X154674105Y-142420067D01*
X154558016Y-142039837D01*
X154436126Y-141621661D01*
X154307173Y-141162971D01*
X154241856Y-140934021D01*
X154176321Y-140718422D01*
X154110175Y-140515424D01*
X154043027Y-140324271D01*
X153974487Y-140144213D01*
X153904161Y-139974495D01*
X153831661Y-139814365D01*
X153756593Y-139663071D01*
X153678566Y-139519858D01*
X153597189Y-139383975D01*
X153512071Y-139254669D01*
X153422821Y-139131186D01*
X153329047Y-139012774D01*
X153230357Y-138898680D01*
X153126360Y-138788150D01*
X153016665Y-138680433D01*
X152872802Y-138549143D01*
X152730800Y-138429753D01*
X152589223Y-138321797D01*
X152446636Y-138224810D01*
X152301601Y-138138329D01*
X152152682Y-138061887D01*
X151998443Y-137995020D01*
X151837448Y-137937263D01*
X151668260Y-137888151D01*
X151489442Y-137847220D01*
X151299559Y-137814003D01*
X151097174Y-137788037D01*
X150880850Y-137768857D01*
X150649151Y-137755997D01*
X150400642Y-137748993D01*
X150133884Y-137747379D01*
X149766455Y-137751715D01*
X149437193Y-137764503D01*
X149279044Y-137775202D01*
X149121038Y-137789378D01*
X148960044Y-137807484D01*
X148792927Y-137829975D01*
X148616556Y-137857306D01*
X148427796Y-137889930D01*
X148000585Y-137972878D01*
X147486229Y-138082453D01*
X146859667Y-138222292D01*
X146244762Y-138359217D01*
X145728825Y-138468443D01*
X145288204Y-138553494D01*
X144899247Y-138617889D01*
X144538301Y-138665152D01*
X144181715Y-138698804D01*
X143805836Y-138722368D01*
X143387012Y-138739364D01*
X142803029Y-138751765D01*
X142542566Y-138750407D01*
X142298324Y-138743048D01*
X142066706Y-138728964D01*
X141844115Y-138707435D01*
X141626952Y-138677739D01*
X141411620Y-138639153D01*
X141194522Y-138590955D01*
X140972059Y-138532424D01*
X140740634Y-138462837D01*
X140496649Y-138381473D01*
X140236507Y-138287609D01*
X139956610Y-138180524D01*
X139323160Y-137923801D01*
X138500105Y-137587828D01*
X137754680Y-137298526D01*
X137049526Y-137044199D01*
X136347281Y-136813148D01*
X135610588Y-136593677D01*
X134802085Y-136374090D01*
X133884414Y-136142689D01*
X132820215Y-135887777D01*
X131124213Y-135482151D01*
X130555132Y-135335955D01*
X130122596Y-135212252D01*
X129789553Y-135099605D01*
X129518953Y-134986574D01*
X129273744Y-134861721D01*
X129016876Y-134713608D01*
X128772035Y-134561301D01*
X128526326Y-134395298D01*
X128280618Y-134216483D01*
X128035785Y-134025739D01*
X127792697Y-133823952D01*
X127552226Y-133612004D01*
X127315243Y-133390781D01*
X127082619Y-133161166D01*
X126855226Y-132924043D01*
X126633936Y-132680298D01*
X126419620Y-132430813D01*
X126213148Y-132176473D01*
X126015394Y-131918163D01*
X125827227Y-131656766D01*
X125649521Y-131393166D01*
X125483145Y-131128248D01*
X125332873Y-130866559D01*
X125195755Y-130599829D01*
X125071638Y-130327187D01*
X124960373Y-130047759D01*
X124861810Y-129760672D01*
X124775797Y-129465052D01*
X124702184Y-129160027D01*
X124640821Y-128844723D01*
X124591557Y-128518268D01*
X124554242Y-128179788D01*
X124528725Y-127828409D01*
X124514855Y-127463260D01*
X124512483Y-127083466D01*
X124521457Y-126688154D01*
X124541627Y-126276452D01*
X124572843Y-125847486D01*
X124649111Y-125056594D01*
X124692383Y-124697109D01*
X124739912Y-124358551D01*
X124792323Y-124038632D01*
X124850238Y-123735066D01*
X124914283Y-123445567D01*
X124985080Y-123167848D01*
X125063254Y-122899622D01*
X125149429Y-122638604D01*
X125244228Y-122382506D01*
X125348276Y-122129042D01*
X125462196Y-121875925D01*
X125586613Y-121620870D01*
X125722150Y-121361589D01*
X125869431Y-121095796D01*
X126187656Y-120557034D01*
X126594640Y-119900046D01*
X127064243Y-119164424D01*
X127570325Y-118389762D01*
X128086748Y-117615654D01*
X128587372Y-116881691D01*
X129046056Y-116227468D01*
X129436662Y-115692577D01*
X129605093Y-115463875D01*
X129770816Y-115228630D01*
X129934277Y-114986001D01*
X130095926Y-114735151D01*
X130256208Y-114475238D01*
X130415573Y-114205425D01*
X130574467Y-113924870D01*
X130733339Y-113632737D01*
X131052803Y-113010371D01*
X131377547Y-112331614D01*
X131711150Y-111589749D01*
X132057195Y-110778061D01*
X132476829Y-109740937D01*
X132825010Y-108809269D01*
X132974562Y-108374091D01*
X133108959Y-107954609D01*
X133229102Y-107547266D01*
X133335896Y-107148508D01*
X133430241Y-106754777D01*
X133513041Y-106362518D01*
X133585198Y-105968175D01*
X133647615Y-105568192D01*
X133701194Y-105159013D01*
X133746838Y-104737082D01*
X133817931Y-103840738D01*
X133890823Y-102862732D01*
X133934068Y-102417377D01*
X133983478Y-101994296D01*
X134040274Y-101588367D01*
X134105681Y-101194473D01*
X134180922Y-100807493D01*
X134267220Y-100422307D01*
X134365799Y-100033797D01*
X134477882Y-99636842D01*
X134604692Y-99226322D01*
X134747452Y-98797120D01*
X135085718Y-97862185D01*
X135502467Y-96791080D01*
X136161375Y-95103142D01*
X136937888Y-93072374D01*
X137382605Y-91929673D01*
X137852897Y-90783830D01*
X138342111Y-89649210D01*
X138843598Y-88540176D01*
X139350707Y-87471089D01*
X139856786Y-86456313D01*
X140355186Y-85510211D01*
X140839256Y-84647145D01*
X141139709Y-84121465D01*
X141414531Y-83619170D01*
X141676522Y-83113305D01*
X141938482Y-82576915D01*
X142213210Y-81983043D01*
X142513506Y-81304736D01*
X142852169Y-80515037D01*
X143241998Y-79586991D01*
X143916077Y-78002406D01*
X144219008Y-77316774D01*
X144503607Y-76692756D01*
X144773180Y-76123232D01*
X145031033Y-75601083D01*
X145280472Y-75119188D01*
X145524802Y-74670429D01*
X146520509Y-72873021D01*
X147629574Y-70850509D01*
X148127595Y-69948160D01*
X148604063Y-69104878D01*
X149004947Y-68415076D01*
X149160162Y-68157233D01*
X149276218Y-67973165D01*
X149332340Y-67892537D01*
X149405635Y-67794872D01*
X149599043Y-67553735D01*
X149847035Y-67260355D01*
X150140205Y-66925333D01*
X150469145Y-66559270D01*
X150824449Y-66172767D01*
X151196710Y-65776425D01*
X151576521Y-65380846D01*
X152465340Y-64448586D01*
X152842906Y-64036404D01*
X153178830Y-63655465D01*
X153475299Y-63302227D01*
X153734503Y-62973146D01*
X153958631Y-62664681D01*
X154149873Y-62373289D01*
X154310417Y-62095428D01*
X154442453Y-61827554D01*
X154548169Y-61566126D01*
X154629756Y-61307602D01*
X154689401Y-61048438D01*
X154729294Y-60785093D01*
X154751625Y-60514023D01*
X154758582Y-60231687D01*
X154757018Y-60085445D01*
X154752062Y-59942611D01*
X154743320Y-59801420D01*
X154730398Y-59660110D01*
X154712902Y-59516917D01*
X154690436Y-59370079D01*
X154662606Y-59217833D01*
X154629018Y-59058415D01*
X154589278Y-58890061D01*
X154542990Y-58711010D01*
X154489762Y-58519498D01*
X154429197Y-58313761D01*
X154284482Y-57852561D01*
X154105691Y-57313307D01*
X153939241Y-56796883D01*
X153800776Y-56312745D01*
X153741481Y-56079498D01*
X153688512Y-55850380D01*
X153641647Y-55624076D01*
X153600663Y-55399272D01*
X153565336Y-55174653D01*
X153535444Y-54948905D01*
X153510763Y-54720714D01*
X153491069Y-54488765D01*
X153476141Y-54251745D01*
X153465754Y-54008338D01*
X153457712Y-53497107D01*
X153464702Y-53007012D01*
X153473939Y-52783343D01*
X153487447Y-52571798D01*
X153505559Y-52370784D01*
X153528607Y-52178704D01*
X153556923Y-51993963D01*
X153590842Y-51814967D01*
X153630694Y-51640120D01*
X153676813Y-51467826D01*
X153729531Y-51296492D01*
X153789180Y-51124520D01*
X153856094Y-50950317D01*
X153930605Y-50772287D01*
X154013046Y-50588834D01*
X154103748Y-50398364D01*
X154227505Y-50164238D01*
X154366556Y-49937168D01*
X154520396Y-49717536D01*
X154688518Y-49505729D01*
X154870419Y-49302129D01*
X155065591Y-49107121D01*
X155273530Y-48921090D01*
X155493730Y-48744418D01*
X155725685Y-48577492D01*
X155968891Y-48420693D01*
X156222841Y-48274408D01*
X156487030Y-48139020D01*
X156760952Y-48014912D01*
X157044102Y-47902470D01*
X157335975Y-47802078D01*
X157636065Y-47714119D01*
X157813217Y-47672455D01*
X158011354Y-47636396D01*
X158227453Y-47605940D01*
X158458492Y-47581083D01*
X158701447Y-47561821D01*
X158953297Y-47548151D01*
X159211018Y-47540070D01*
X159471589Y-47537574D01*
X159731985Y-47540660D01*
M02*
