G04 #@! TF.GenerationSoftware,KiCad,Pcbnew,8.0.7-8.0.7-0~ubuntu24.04.1*
G04 #@! TF.CreationDate,2025-01-03T20:46:54-06:00*
G04 #@! TF.ProjectId,christmas-tree,63687269-7374-46d6-9173-2d747265652e,rev?*
G04 #@! TF.SameCoordinates,Original*
G04 #@! TF.FileFunction,Paste,Bot*
G04 #@! TF.FilePolarity,Positive*
%FSLAX46Y46*%
G04 Gerber Fmt 4.6, Leading zero omitted, Abs format (unit mm)*
G04 Created by KiCad (PCBNEW 8.0.7-8.0.7-0~ubuntu24.04.1) date 2025-01-03 20:46:54*
%MOMM*%
%LPD*%
G01*
G04 APERTURE LIST*
G04 Aperture macros list*
%AMRoundRect*
0 Rectangle with rounded corners*
0 $1 Rounding radius*
0 $2 $3 $4 $5 $6 $7 $8 $9 X,Y pos of 4 corners*
0 Add a 4 corners polygon primitive as box body*
4,1,4,$2,$3,$4,$5,$6,$7,$8,$9,$2,$3,0*
0 Add four circle primitives for the rounded corners*
1,1,$1+$1,$2,$3*
1,1,$1+$1,$4,$5*
1,1,$1+$1,$6,$7*
1,1,$1+$1,$8,$9*
0 Add four rect primitives between the rounded corners*
20,1,$1+$1,$2,$3,$4,$5,0*
20,1,$1+$1,$4,$5,$6,$7,0*
20,1,$1+$1,$6,$7,$8,$9,0*
20,1,$1+$1,$8,$9,$2,$3,0*%
G04 Aperture macros list end*
%ADD10RoundRect,0.250000X0.325000X0.450000X-0.325000X0.450000X-0.325000X-0.450000X0.325000X-0.450000X0*%
%ADD11RoundRect,0.250000X0.450000X-0.325000X0.450000X0.325000X-0.450000X0.325000X-0.450000X-0.325000X0*%
G04 APERTURE END LIST*
D10*
G04 #@! TO.C,D19*
X164496600Y-89787600D03*
X162446600Y-89787600D03*
G04 #@! TD*
G04 #@! TO.C,D21*
X163521600Y-81787600D03*
X161471600Y-81787600D03*
G04 #@! TD*
G04 #@! TO.C,D4*
X141721600Y-128287600D03*
X139671600Y-128287600D03*
G04 #@! TD*
G04 #@! TO.C,D9*
X169221600Y-115787600D03*
X167171600Y-115787600D03*
G04 #@! TD*
G04 #@! TO.C,D16*
X145496600Y-99037600D03*
X143446600Y-99037600D03*
G04 #@! TD*
G04 #@! TO.C,D11*
X146721600Y-110287600D03*
X144671600Y-110287600D03*
G04 #@! TD*
G04 #@! TO.C,D2*
X181721600Y-127537600D03*
X179671600Y-127537600D03*
G04 #@! TD*
G04 #@! TO.C,D6*
X139721600Y-119537600D03*
X137671600Y-119537600D03*
G04 #@! TD*
G04 #@! TO.C,D23*
X163221600Y-74287600D03*
X161171600Y-74287600D03*
G04 #@! TD*
G04 #@! TO.C,D3*
X151471600Y-128537600D03*
X149421600Y-128537600D03*
G04 #@! TD*
G04 #@! TO.C,D22*
X155221600Y-77037600D03*
X153171600Y-77037600D03*
G04 #@! TD*
G04 #@! TO.C,D7*
X155746600Y-118037600D03*
X153696600Y-118037600D03*
G04 #@! TD*
G04 #@! TO.C,D12*
X175496600Y-107537600D03*
X173446600Y-107537600D03*
G04 #@! TD*
G04 #@! TO.C,D17*
X149271600Y-92537600D03*
X147221600Y-92537600D03*
G04 #@! TD*
G04 #@! TO.C,D15*
X169996600Y-98787600D03*
X167946600Y-98787600D03*
G04 #@! TD*
G04 #@! TO.C,D20*
X156471600Y-83537600D03*
X154421600Y-83537600D03*
G04 #@! TD*
G04 #@! TO.C,D8*
X177471600Y-118537600D03*
X175421600Y-118537600D03*
G04 #@! TD*
G04 #@! TO.C,D13*
X151246600Y-104037600D03*
X149196600Y-104037600D03*
G04 #@! TD*
G04 #@! TO.C,D14*
X159471600Y-99287600D03*
X157421600Y-99287600D03*
G04 #@! TD*
G04 #@! TO.C,D1*
X171496600Y-130787600D03*
X169446600Y-130787600D03*
G04 #@! TD*
G04 #@! TO.C,D5*
X163246600Y-125537600D03*
X161196600Y-125537600D03*
G04 #@! TD*
G04 #@! TO.C,D24*
X159721600Y-67787600D03*
X157671600Y-67787600D03*
G04 #@! TD*
D11*
G04 #@! TO.C,D25*
X159471600Y-53812600D03*
X159471600Y-51762600D03*
G04 #@! TD*
D10*
G04 #@! TO.C,D18*
X172996600Y-92287600D03*
X170946600Y-92287600D03*
G04 #@! TD*
G04 #@! TO.C,D10*
X161471600Y-111537600D03*
X159421600Y-111537600D03*
G04 #@! TD*
M02*
