M48
INCH,TZ
T1C0.0118
T2C0.0217
T3C0.0394
%
G90
G05
T1
X54497Y-40743
X55384Y-52109
X55712Y-47123
X56131Y-46432
X56248Y-34016
X56865Y-47790
X57623Y-35849
X57803Y-51385
X57922Y-47574
X57929Y-32705
X57942Y-47180
X58469Y-40154
X58816Y-40142
X59144Y-30500
X59155Y-40336
X59359Y-48243
X59398Y-47495
X59438Y-30837
X59523Y-33386
X59606Y-41599
X59607Y-32386
X59626Y-34243
X59667Y-34939
X59685Y-39623
X61446Y-40864
X61505Y-36727
X61702Y-42830
X61702Y-50212
X61761Y-49818
X61879Y-31156
X62008Y-32448
X62154Y-36799
X62247Y-22660
X62409Y-30811
X62942Y-48597
X63096Y-41566
X63098Y-19681
X63520Y-33554
X63554Y-31653
X63578Y-22005
X63647Y-48553
X63665Y-52199
X63850Y-37551
X64104Y-44698
X64144Y-43789
X64409Y-44867
X64823Y-41248
X64854Y-50674
X64858Y-47339
X64869Y-48985
X64871Y-40448
X64886Y-46983
X65057Y-41038
X65064Y-42870
X65183Y-49010
X65189Y-47679
X65281Y-34541
X65395Y-40643
X65476Y-36167
X65621Y-30946
X66179Y-28140
X66286Y-44843
X66426Y-38105
X66477Y-41950
X66524Y-32397
X66591Y-28136
X67194Y-49751
X70698Y-49503
T3
X51498Y-50974
X51498Y-48974
X51498Y-49974
T2
G00X58930Y-52820
M15
G01X58930Y-52564
M16
G05
G00X62292Y-52820
M15
G01X62292Y-52564
M16
G05
M30
