<?xml version="1.0" encoding="UTF-8" standalone="no"?>
<!-- Created with Inkscape (http://www.inkscape.org/) -->

<svg
   version="1.1"
   id="svg5651"
   width="1024"
   height="1024"
   viewBox="0 0 1024 1024"
   sodipodi:docname="christmas-tree-with-nothing-in-the-background____outline_filled.svg"
   inkscape:version="1.2.2 (b0a8486541, 2022-12-01)"
   xmlns:inkscape="http://www.inkscape.org/namespaces/inkscape"
   xmlns:sodipodi="http://sodipodi.sourceforge.net/DTD/sodipodi-0.dtd"
   xmlns="http://www.w3.org/2000/svg"
   xmlns:svg="http://www.w3.org/2000/svg">
  <defs
     id="defs5655" />
  <sodipodi:namedview
     id="namedview5653"
     pagecolor="#ffffff"
     bordercolor="#666666"
     borderopacity="1.0"
     inkscape:showpageshadow="2"
     inkscape:pageopacity="0.0"
     inkscape:pagecheckerboard="0"
     inkscape:deskcolor="#d1d1d1"
     showgrid="false"
     inkscape:zoom="0.57866746"
     inkscape:cx="228.11028"
     inkscape:cy="547.81031"
     inkscape:window-width="1920"
     inkscape:window-height="1008"
     inkscape:window-x="0"
     inkscape:window-y="0"
     inkscape:window-maximized="1"
     inkscape:current-layer="g5657" />
  <g
     inkscape:groupmode="layer"
     inkscape:label="Image"
     id="g5657">
    <path
       style="display:inline;fill:none;stroke:#000000;stroke-opacity:1;stroke-width:4;stroke-dasharray:none"
       d="m 514.5,1012.9452 c -9.55478,-1.4645 -18.63249,-4.6706 -23.57484,-8.3264 -8.65431,-6.40155 -12.21965,-13.66669 -19.36368,-39.45764 -3.51211,-12.67919 -6.95008,-19.29281 -13.00667,-25.02088 -7.80892,-7.38535 -14.19954,-9.45377 -29.05481,-9.40401 -10.61274,0.0355 -14.42771,0.58889 -33,4.78656 -18.06844,4.0838 -22.95437,4.8113 -35,5.2114 -17.01868,0.56528 -22.42035,-0.51876 -40.95848,-8.21982 C 297.04264,922.75257 285.90591,919.26574 255,911.99384 c -28.78483,-6.77282 -30.94048,-7.43831 -38.33286,-11.83416 -13.12202,-7.80296 -26.99246,-21.87607 -35.61555,-36.13595 -8.43379,-13.94685 -11.14682,-29.6854 -9.1747,-53.22341 1.89924,-22.66817 4.82429,-33.38782 13.06798,-47.89107 7.12585,-12.53664 26.60405,-42.03991 35.95319,-54.45766 9.13454,-12.1327 16.9119,-26.71828 26.41168,-49.53214 12.30323,-29.54641 16.14861,-44.69725 17.746,-69.91945 1.78123,-28.12491 4.63487,-40.0672 16.978,-71.05171 3.18829,-8.00344 9.69856,-24.86939 14.46727,-37.47988 11.54924,-30.54109 26.56287,-62.96392 39.32085,-84.91568 8.53424,-14.68427 12.93708,-23.95662 24.21661,-51 9.75851,-23.39664 16.48005,-37.87307 23.00782,-49.55273 5.07202,-9.075 14.61807,-26.4 21.21344,-38.5 6.59537,-12.1 14.06361,-25.15 16.59609,-29 2.53406,-3.85242 12.95891,-15.60068 23.18413,-26.12731 26.40152,-27.17975 32.07116,-36.35428 32.07116,-51.89703 0,-7.98415 -1.28879,-13.74495 -6.58031,-29.4136 C 464.66509,105.65429 463,95.847942 463,81.599631 c 0,-14.023938 1.40766,-20.775858 6.51124,-31.231425 6.23221,-12.767791 19.25874,-22.66679 35.60129,-27.053818 8.90433,-2.390298 28.13256,-2.368544 36.88747,0.04173 28.5952,7.872421 41.31667,25.125255 41.398,56.143879 0.0396,15.096965 -1.37327,22.956683 -7.72958,43.000003 -4.65934,14.69225 -5.07792,16.81735 -5.12124,26 -0.0462,9.80017 0.0378,10.17065 4.20402,18.53976 4.8377,9.71791 13.69898,20.30752 31.43264,37.56337 6.27581,6.10673 13.50743,13.55753 16.07025,16.55735 2.56282,2.99981 15.52405,23.8784 28.80274,46.39686 18.67647,31.67222 27.51982,47.90616 39.05643,71.69681 16.23261,33.47465 18.44263,37.39748 32.81421,58.24585 28.07592,40.72882 31.92102,50.59213 48.97244,125.62242 3.94806,17.37238 8.38321,34.22584 10.25017,38.95037 1.81,4.58037 9.53894,20.95028 17.17542,36.37758 20.92868,42.28032 22.29456,46.33849 25.66988,76.26802 3.30684,29.32222 5.49484,35.68019 18.19751,52.87895 14.20714,19.23575 14.72288,20.35205 21.90053,47.40266 2.69985,10.175 6.03331,22.26348 7.4077,26.8633 3.29812,11.0382 3.54721,29.76285 0.54805,41.19836 -4.39899,16.77289 -13.30285,33.38474 -22.16455,41.35216 -10.75689,9.67138 -21.2611,14.64062 -61.60168,29.14197 -31.28862,11.24741 -57.71199,19.58619 -71.78294,22.65349 -13.54166,2.95193 -37.77821,2.88217 -62.88907,-0.18101 -14.42051,-1.75911 -19.30431,-1.99312 -25.1881,-1.2069 -14.01579,1.87287 -24.87089,9.20954 -30.41406,20.55605 -1.6451,3.36742 -4.79867,12.33506 -7.00793,19.92809 -2.20926,7.59303 -4.93273,15.60081 -6.05215,17.79506 -4.64435,9.10363 -12.6269,14.87383 -25.61965,18.51903 -6.87215,1.9281 -36.33777,2.7804 -45.82904,1.3256 z"
       id="path5661" />
  </g>
</svg>
