<?xml version="1.0" encoding="UTF-8" standalone="no"?>
<!-- Created with Inkscape (http://www.inkscape.org/) -->

<svg
   version="1.1"
   id="svg5651"
   width="1024"
   height="1024"
   viewBox="0 0 1024 1024"
   sodipodi:docname="tree-enclosureoutline.svg"
   inkscape:version="1.2.2 (b0a8486541, 2022-12-01)"
   xmlns:inkscape="http://www.inkscape.org/namespaces/inkscape"
   xmlns:sodipodi="http://sodipodi.sourceforge.net/DTD/sodipodi-0.dtd"
   xmlns="http://www.w3.org/2000/svg"
   xmlns:svg="http://www.w3.org/2000/svg">
  <defs
     id="defs5655" />
  <sodipodi:namedview
     id="namedview5653"
     pagecolor="#ffffff"
     bordercolor="#666666"
     borderopacity="1.0"
     inkscape:showpageshadow="2"
     inkscape:pageopacity="0.0"
     inkscape:pagecheckerboard="0"
     inkscape:deskcolor="#d1d1d1"
     showgrid="false"
     inkscape:zoom="0.40917969"
     inkscape:cx="-400.80191"
     inkscape:cy="119.75179"
     inkscape:window-width="1920"
     inkscape:window-height="1008"
     inkscape:window-x="0"
     inkscape:window-y="0"
     inkscape:window-maximized="1"
     inkscape:current-layer="g169" />
  <g
     inkscape:groupmode="layer"
     inkscape:label="Image copy"
     id="g169">
    <path
       id="path167"
       style="display:inline;fill:none;stroke:#000000;stroke-width:4;stroke-dasharray:none;stroke-opacity:1"
       d="m 520.94531,15.560547 c -7.41142,0.178165 -14.93626,0.792727 -21.95451,3.348111 -12.26681,4.131387 -23.63103,11.698897 -31.08688,22.40393 -3.74728,5.469726 -6.40636,11.623854 -8.39559,17.928278 -2.56361,8.806406 -2.63138,18.075838 -2.44192,27.171243 0.25981,9.019951 1.52852,18.023071 4.02716,26.701591 2.68251,9.63431 6.65242,18.91812 8.42401,28.79646 0.0813,0.53789 0.21005,1.41729 0.28711,2.08593 0.5523,5.02711 0.45299,10.20075 -0.88564,15.10131 -2.05728,6.96021 -6.56492,12.82361 -11.09216,18.36276 -9.02836,10.91227 -19.34673,20.65205 -28.82703,31.15677 -4.18967,4.60949 -8.37428,9.24304 -12.16197,14.19362 -2.78581,3.90532 -5.02816,8.15816 -7.46981,12.2789 -9.02025,15.71771 -17.48147,31.73023 -26.31766,47.54465 -4.62094,8.28367 -9.26077,16.56479 -13.3308,25.13809 -9.49597,19.68383 -17.23577,40.14604 -26.24586,60.0474 -3.73356,8.22143 -7.8983,16.24333 -12.45044,24.0411 -10.03081,17.34322 -18.69999,35.43797 -26.7638,53.76766 -5.46828,12.44886 -10.51963,25.07625 -15.30674,37.80089 -5.3444,14.098 -10.88206,28.16026 -16.36294,42.22701 -4.95498,12.96272 -9.28629,26.26528 -11.26914,40.04168 -1.66916,10.78643 -2.02128,21.71265 -3.03271,32.5675 -1.00055,9.91533 -2.84582,19.75663 -5.77836,29.28754 -1.39031,4.64036 -2.98423,9.2611 -4.65374,13.73949 -3.23178,8.60528 -6.78523,17.12482 -10.47308,25.51027 -5.72097,12.87861 -12.15096,25.70294 -20.59875,37.10022 -8.82947,11.94063 -17.05397,24.3141 -25.14441,36.76198 -4.31056,6.74317 -8.61234,13.49834 -12.57715,20.45226 -4.25387,7.63495 -7.71531,15.7671 -9.62042,24.31939 -2.37906,10.19117 -3.27877,20.65126 -3.96148,31.07127 -0.63062,12.29188 0.007,24.86118 3.93765,36.61378 3.0085,9.1244 8.158,17.38119 14.07064,24.89429 7.65331,9.74186 16.69684,18.45504 27.01188,25.34561 4.76448,3.20205 9.91492,5.88525 15.43648,7.51293 6.23305,1.91896 12.60474,3.3392 18.9358,4.88921 8.97491,2.13484 17.93142,4.19748 26.86718,6.49219 1.42098,0.37218 3.11178,0.8128 4.52028,1.18854 10.31671,2.76115 20.50241,6.02474 30.43583,9.95373 7.37734,2.83353 14.5991,6.06007 22.01404,8.79585 6.60985,2.42223 13.51444,4.21953 20.57651,4.50751 6.71805,0.36953 13.45012,0.0147 20.16038,-0.34602 13.51951,-1.01628 26.58757,-4.83175 39.83216,-7.47038 4.7993,-0.98385 9.64074,-1.86122 14.54899,-2.0191 3.52844,-0.16963 7.06378,-0.16713 10.59346,-0.034 0.87868,0.0491 2.04535,0.0846 3.0332,0.16797 4.86665,0.37424 9.86413,1.61589 13.72769,4.74262 4.7479,3.49981 8.52854,8.2913 10.76824,13.75316 2.94349,6.81349 4.46357,14.11348 6.68538,21.17061 2.15279,7.09756 4.44019,14.22906 8.02907,20.75211 3.31562,5.9362 8.25208,10.9713 14.22196,14.249 5.70287,3.1725 12.02802,5.0449 18.37401,6.4325 5.09058,1.0852 10.30023,1.4789 15.49784,1.4972 10.4963,0.2239 21.01217,-0.126 31.45903,-1.1794 4.01117,-0.4292 7.91964,-1.5099 11.67912,-2.9508 7.53653,-2.7873 14.69352,-7.1902 19.61487,-13.6506 2.81304,-3.58269 4.81377,-7.74105 6.17974,-12.07263 3.71092,-10.50231 6.18454,-21.44233 10.68297,-31.66174 3.48654,-7.38876 10.28345,-12.95344 17.99509,-15.48257 6.56574,-2.28024 13.65858,-2.60073 20.51997,-1.80646 7.9517,0.71969 16.044,1.8958 24.08517,2.54172 14.88237,1.13974 29.93141,1.65913 44.80241,-0.0887 8.12849,-1.031 15.99987,-3.38906 23.86496,-5.60027 15.42039,-4.49239 30.63555,-9.65811 45.80001,-14.9409 12.98999,-4.57619 25.94394,-9.26421 38.76129,-14.30663 8.96928,-3.58506 17.94092,-7.39124 26.02026,-12.74676 6.31633,-4.19702 12.03998,-9.37754 16.39713,-15.61356 5.53558,-7.69737 9.70984,-16.304 12.99515,-25.1762 2.39954,-6.52156 4.29473,-13.27465 4.96296,-20.21093 0.90633,-8.50677 0.70628,-17.12473 -0.43818,-25.59816 -0.61941,-4.44081 -1.77987,-8.77998 -3.08614,-13.06155 -3.63739,-12.76551 -6.87661,-25.64012 -10.5336,-38.39927 -2.06513,-6.94555 -4.74465,-13.78145 -8.78875,-19.83201 -5.39593,-8.50302 -12.06851,-16.13126 -17.21906,-24.7969 -0.39518,-0.68013 -0.92573,-1.62927 -1.33763,-2.43347 -0.93764,-1.79786 -1.76983,-3.65052 -2.49245,-5.54504 -0.15602,-0.40933 -0.43014,-1.17644 -0.61383,-1.72842 -2.48707,-7.73822 -3.46369,-15.8483 -4.48803,-23.88079 -1.57942,-13.08284 -2.62778,-26.37706 -6.79395,-38.9637 -3.87237,-11.74948 -9.47001,-22.81645 -14.8329,-33.93291 -7.34313,-15.0317 -14.88419,-29.97659 -21.66351,-45.27469 -2.14203,-5.3777 -3.49376,-11.02378 -4.9957,-16.60244 -5.38448,-20.77428 -9.62637,-41.82394 -14.96862,-62.60801 -3.70873,-14.65293 -7.80988,-29.28172 -13.85369,-43.16709 -4.68384,-10.73648 -10.64656,-20.85828 -17.0807,-30.62799 -5.34349,-8.13851 -10.97602,-16.08888 -16.34018,-24.14841 -4.58558,-6.73399 -8.72062,-13.85252 -12.50703,-21.11311 -6.65765,-12.85293 -12.79976,-26.0824 -19.34689,-39.06703 -11.33011,-22.60686 -24.12147,-44.44099 -37.03167,-66.17217 -7.68981,-12.84236 -15.34763,-25.71628 -23.65251,-38.17462 -2.62452,-3.70963 -5.96314,-6.82564 -9.0593,-10.12847 -9.38587,-9.61659 -19.3362,-18.7036 -28.0918,-28.91992 -3.83943,-4.46579 -7.55688,-9.32668 -10.43603,-14.56269 -1.27723,-2.4192 -2.53139,-4.86338 -3.52686,-7.41387 -0.68852,-1.76399 -0.8554,-3.66167 -0.81544,-5.53923 -0.0686,-4.15467 -0.1286,-8.33461 0.39027,-12.46433 0.90235,-5.79647 2.96775,-11.31823 4.64256,-16.91781 3.49737,-11.18196 6.92945,-22.55779 7.50641,-34.335515 0.58757,-10.158266 0.3921,-20.479366 -1.99867,-30.416147 -2.11465,-8.730083 -6.10729,-17.127162 -12.28233,-23.721777 -6.20049,-6.716963 -14.22408,-11.539352 -22.73545,-14.742505 -5.5575,-2.154318 -11.36222,-3.769167 -17.31539,-4.292748 -4.59789,-0.475968 -9.22801,-0.547569 -13.84704,-0.507441 z" />
  </g>
</svg>
